<svg width="24" height="24" viewBox="0 0 24 24" fill="none" xmlns="http://www.w3.org/2000/svg">
<path d="M21.57 8.5125C21.4996 8.43018 21.4122 8.36408 21.3138 8.31877C21.2154 8.27345 21.1083 8.24999 21 8.25H16.5V5.25C16.5 4.65326 16.263 4.08097 15.841 3.65901C15.419 3.23705 14.8467 3 14.25 3H9.75001C9.15327 3 8.58098 3.23705 8.15902 3.65901C7.73706 4.08097 7.50001 4.65326 7.50001 5.25V8.25H3.00001C2.89129 8.24877 2.78361 8.27119 2.68442 8.31571C2.58523 8.36022 2.4969 8.42578 2.42556 8.50782C2.35422 8.58986 2.30157 8.68643 2.27126 8.79084C2.24094 8.89526 2.23369 9.00501 2.25001 9.1125L3.66001 18.225C3.71425 18.5827 3.89593 18.9087 4.17158 19.143C4.44723 19.3773 4.79826 19.5041 5.16001 19.5H18.855C19.2168 19.5041 19.5678 19.3773 19.8434 19.143C20.1191 18.9087 20.3008 18.5827 20.355 18.225L21.75 9.1125C21.765 9.00543 21.7567 8.89637 21.7257 8.79281C21.6946 8.68925 21.6415 8.59363 21.57 8.5125ZM9.00001 5.25C9.00001 5.05109 9.07903 4.86032 9.21968 4.71967C9.36033 4.57902 9.5511 4.5 9.75001 4.5H14.25C14.4489 4.5 14.6397 4.57902 14.7803 4.71967C14.921 4.86032 15 5.05109 15 5.25V8.25H9.00001V5.25ZM18.855 18H5.14501L3.87751 9.75H20.1225L18.855 18Z" fill="white"/>
</svg>
