<svg width="30" height="30" viewBox="0 0 30 30" fill="none" xmlns="http://www.w3.org/2000/svg">
<path d="M15 15C15.6904 15 16.25 14.4404 16.25 13.75C16.25 13.0596 15.6904 12.5 15 12.5C14.3096 12.5 13.75 13.0596 13.75 13.75C13.75 14.4404 14.3096 15 15 15Z" fill="black"/>
<path d="M20 15C20.6904 15 21.25 14.4404 21.25 13.75C21.25 13.0596 20.6904 12.5 20 12.5C19.3096 12.5 18.75 13.0596 18.75 13.75C18.75 14.4404 19.3096 15 20 15Z" fill="black"/>
<path d="M10 15C10.6904 15 11.25 14.4404 11.25 13.75C11.25 13.0596 10.6904 12.5 10 12.5C9.30964 12.5 8.75 13.0596 8.75 13.75C8.75 14.4404 9.30964 15 10 15Z" fill="black"/>
<path d="M23.75 3.75H6.25C5.25544 3.75 4.30161 4.14509 3.59835 4.84835C2.89509 5.55161 2.5 6.50544 2.5 7.5V26.25C2.50038 26.4715 2.55961 26.6889 2.67163 26.88C2.78364 27.0711 2.94442 27.229 3.1375 27.3375C3.32432 27.4434 3.53526 27.4993 3.75 27.5C3.97435 27.4999 4.19456 27.4395 4.3875 27.325L10 23.925C10.2075 23.8015 10.4462 23.7407 10.6875 23.75H23.75C24.7446 23.75 25.6984 23.3549 26.4017 22.6517C27.1049 21.9484 27.5 20.9946 27.5 20V7.5C27.5 6.50544 27.1049 5.55161 26.4017 4.84835C25.6984 4.14509 24.7446 3.75 23.75 3.75ZM25 20C25 20.3315 24.8683 20.6495 24.6339 20.8839C24.3995 21.1183 24.0815 21.25 23.75 21.25H10.6875C10.0048 21.2495 9.33486 21.4353 8.75 21.7875L5 24.0375V7.5C5 7.16848 5.1317 6.85054 5.36612 6.61612C5.60054 6.3817 5.91848 6.25 6.25 6.25H23.75C24.0815 6.25 24.3995 6.3817 24.6339 6.61612C24.8683 6.85054 25 7.16848 25 7.5V20Z" fill="black"/>
</svg>
