<svg width="30" height="30" viewBox="0 0 30 30" fill="none" xmlns="http://www.w3.org/2000/svg">
<path fill-rule="evenodd" clip-rule="evenodd" d="M15 28C22.1797 28 28 22.1797 28 15C28 7.8203 22.1797 2 15 2C7.8203 2 2 7.8203 2 15C2 22.1797 7.8203 28 15 28ZM15 30C23.2843 30 30 23.2843 30 15C30 6.71573 23.2843 0 15 0C6.71573 0 0 6.71573 0 15C0 23.2843 6.71573 30 15 30Z" fill="#484848"/>
<path d="M13.593 21.157L19.25 15.5L13.593 9.84302L12.886 10.55L17.836 15.5L12.886 20.45L13.593 21.157Z" fill="#484848"/>
<path fill-rule="evenodd" clip-rule="evenodd" d="M13.593 9.13599L19.9571 15.5001L13.593 21.8642L12.1789 20.4501L17.1289 15.5001L12.1789 10.5501L13.593 9.13599Z" fill="#484848"/>
</svg>
