<svg width="30" height="30" viewBox="0 0 30 30" fill="none" xmlns="http://www.w3.org/2000/svg">
<path d="M29.5375 5.83329C28.96 4.84079 27.8975 4.16663 26.6667 4.16663H15V5.83329H29.5375ZM0 20.8333H30V22.5H0V20.8333ZM15 14.1666H30V15.8333H15V14.1666ZM15 10.8333H30V12.5H15V10.8333ZM0 17.5H30V19.1666H0V17.5ZM3.33333 25.8333H26.6667C27.8975 25.8333 28.96 25.1591 29.5375 24.1666H0.4625C1.04 25.1591 2.1025 25.8333 3.33333 25.8333ZM15 7.49996H30V9.16663H15V7.49996Z" fill="#B22334"/>
<path d="M0.0566667 23.0659C0.0708333 23.1434 0.0866667 23.2209 0.105833 23.2967C0.1275 23.3809 0.154167 23.4617 0.1825 23.5434C0.256667 23.7592 0.346667 23.9675 0.46 24.1625L0.4625 24.1667H29.5375L29.5392 24.1634C29.6517 23.9692 29.7417 23.7609 29.8158 23.5459C29.8442 23.4634 29.8717 23.3809 29.8933 23.295C29.9125 23.22 29.9283 23.1434 29.9425 23.0659C29.9767 22.8825 30 22.6942 30 22.5H0C0 22.6942 0.0233333 22.8817 0.0566667 23.0659ZM0 19.1667H30V20.8334H0V19.1667ZM0 15.8334V17.5H30V15.8334H15H0ZM15 12.5H30V14.1667H15V12.5ZM15 9.16671H30V10.8334H15V9.16671ZM0 7.50004C0 7.30587 0.025 7.11921 0.0566667 6.93421C0.0233333 7.11837 0 7.30587 0 7.50004ZM0.4625 5.83337L0.46 5.83754L0.4625 5.83337ZM0.106667 6.70337C0.1275 6.61837 0.156667 6.53754 0.183333 6.45587C0.155 6.53754 0.128333 6.61921 0.106667 6.70337ZM15 7.50004H30C30 7.30587 29.9767 7.11754 29.9425 6.93337C29.9283 6.85671 29.9133 6.78004 29.8933 6.70504C29.8708 6.61921 29.8442 6.53587 29.815 6.45337C29.7408 6.23837 29.6508 6.03087 29.5383 5.83671C29.5392 5.83587 29.5383 5.83421 29.5375 5.83337H15V7.50004Z" fill="#EEEEEE"/>
<path d="M15 4.16663H3.33333C1.4925 4.16663 0 5.65913 0 7.49996V15.8333H15V4.16663Z" fill="#3C3B6E"/>
<path d="M1.66748 6.43837L2.18248 6.81254L1.98581 7.41671L2.49998 7.04337L3.01498 7.41671L2.81831 6.81254L3.33331 6.43837H2.69665L2.49998 5.83337L2.30415 6.43837H1.66748ZM3.33415 8.10504L3.84915 8.47921L3.65248 9.08337L4.16665 8.71004L4.68165 9.08337L4.48498 8.47921L4.99998 8.10504H4.36331L4.16665 7.50004L3.97081 8.10504H3.33415ZM6.66748 8.10504L7.18248 8.47921L6.98581 9.08337L7.49998 8.71004L8.01498 9.08337L7.81831 8.47921L8.33331 8.10504H7.69665L7.49998 7.50004L7.30415 8.10504H6.66748ZM10.0008 8.10504L10.5158 8.47921L10.3191 9.08337L10.8333 8.71004L11.3483 9.08337L11.1516 8.47921L11.6666 8.10504H11.03L10.8333 7.50004L10.6375 8.10504H10.0008ZM3.33415 11.4384L3.84915 11.8125L3.65248 12.4167L4.16665 12.0434L4.68165 12.4167L4.48498 11.8125L4.99998 11.4384H4.36331L4.16665 10.8334L3.97081 11.4384H3.33415ZM6.66748 11.4384L7.18248 11.8125L6.98581 12.4167L7.49998 12.0434L8.01498 12.4167L7.81831 11.8125L8.33331 11.4384H7.69665L7.49998 10.8334L7.30415 11.4384H6.66748ZM10.0008 11.4384L10.5158 11.8125L10.3191 12.4167L10.8333 12.0434L11.3483 12.4167L11.1516 11.8125L11.6666 11.4384H11.03L10.8333 10.8334L10.6375 11.4384H10.0008ZM5.00081 6.43837L5.51581 6.81254L5.31915 7.41671L5.83331 7.04337L6.34831 7.41671L6.15165 6.81254L6.66665 6.43837H6.02998L5.83331 5.83337L5.63748 6.43837H5.00081ZM8.33415 6.43837L8.84915 6.81254L8.65248 7.41671L9.16665 7.04337L9.68165 7.41671L9.48498 6.81254L9.99998 6.43837H9.36331L9.16665 5.83337L8.97081 6.43837H8.33415ZM11.6675 6.43837L12.1825 6.81254L11.9858 7.41671L12.5 7.04337L13.015 7.41671L12.8183 6.81254L13.3333 6.43837H12.6966L12.5 5.83337L12.3041 6.43837H11.6675ZM1.66748 9.77171L2.18248 10.1459L1.98581 10.75L2.49998 10.3767L3.01498 10.75L2.81831 10.1459L3.33331 9.77171H2.69665L2.49998 9.16671L2.30415 9.77171H1.66748ZM5.31915 10.75L5.83331 10.3767L6.34831 10.75L6.15165 10.1459L6.66665 9.77171H6.02998L5.83331 9.16671L5.63748 9.77171H5.00081L5.51581 10.1459L5.31915 10.75ZM8.33415 9.77171L8.84915 10.1459L8.65248 10.75L9.16665 10.3767L9.68165 10.75L9.48498 10.1459L9.99998 9.77171H9.36331L9.16665 9.16671L8.97081 9.77171H8.33415ZM11.6675 9.77171L12.1825 10.1459L11.9858 10.75L12.5 10.3767L13.015 10.75L12.8183 10.1459L13.3333 9.77171H12.6966L12.5 9.16671L12.3041 9.77171H11.6675ZM1.66748 13.105L2.18248 13.4792L1.98581 14.0834L2.49998 13.71L3.01498 14.0834L2.81831 13.4792L3.33331 13.105H2.69665L2.49998 12.5L2.30415 13.105H1.66748ZM5.31915 14.0834L5.83331 13.71L6.34831 14.0834L6.15165 13.4792L6.66665 13.105H6.02998L5.83331 12.5L5.63748 13.105H5.00081L5.51581 13.4792L5.31915 14.0834ZM8.33415 13.105L8.84915 13.4792L8.65248 14.0834L9.16665 13.71L9.68165 14.0834L9.48498 13.4792L9.99998 13.105H9.36331L9.16665 12.5L8.97081 13.105H8.33415ZM11.6675 13.105L12.1825 13.4792L11.9858 14.0834L12.5 13.71L13.015 14.0834L12.8183 13.4792L13.3333 13.105H12.6966L12.5 12.5L12.3041 13.105H11.6675Z" fill="white"/>
</svg>
