<svg width="26" height="26" viewBox="0 0 26 26" fill="none" xmlns="http://www.w3.org/2000/svg">
<path d="M22.375 25.1875H22.2156C3.79377 24.1281 1.17814 8.58438 0.812518 3.84063C0.783058 3.47179 0.826664 3.10077 0.940839 2.74882C1.05501 2.39687 1.23751 2.07091 1.47788 1.78961C1.71825 1.50831 2.01175 1.27721 2.34159 1.10954C2.67143 0.941867 3.03111 0.840927 3.40002 0.812501H8.56564C8.94117 0.812137 9.30815 0.924541 9.61905 1.13515C9.92995 1.34576 10.1705 1.64488 10.3094 1.99375L11.7344 5.5C11.8716 5.84083 11.9056 6.21445 11.8323 6.57446C11.759 6.93447 11.5815 7.26501 11.3219 7.525L9.32502 9.54063C9.63694 11.3132 10.4858 12.9472 11.7568 14.2215C13.0278 15.4959 14.6595 16.349 16.4313 16.6656L18.4656 14.65C18.7295 14.3933 19.0632 14.2199 19.425 14.1516C19.7867 14.0832 20.1606 14.1229 20.5 14.2656L24.0344 15.6813C24.378 15.8246 24.6712 16.067 24.8765 16.3775C25.0819 16.6881 25.1902 17.0527 25.1875 17.425V22.375C25.1875 23.1209 24.8912 23.8363 24.3638 24.3637C23.8363 24.8912 23.1209 25.1875 22.375 25.1875ZM3.62502 2.6875C3.37638 2.6875 3.13792 2.78627 2.96211 2.96209C2.78629 3.1379 2.68752 3.37636 2.68752 3.625V3.7C3.11877 9.25 5.88439 22.375 22.3188 23.3125C22.4419 23.3201 22.5654 23.3033 22.6821 23.2631C22.7987 23.2229 22.9063 23.1601 22.9986 23.0782C23.0909 22.9963 23.1662 22.897 23.2201 22.786C23.2739 22.675 23.3053 22.5544 23.3125 22.4312V17.425L19.7781 16.0094L17.0875 18.6812L16.6375 18.625C8.48127 17.6031 7.37502 9.44688 7.37502 9.3625L7.31877 8.9125L9.98127 6.22188L8.57502 2.6875H3.62502Z" fill="#484848"/>
</svg>
