<svg width="42" height="42" viewBox="0 0 42 42" fill="none" xmlns="http://www.w3.org/2000/svg">
<path d="M19.3121 9.98699C18.984 9.65891 18.5389 9.47461 18.0749 9.47461C17.6109 9.47461 17.1658 9.65891 16.8376 9.98699L14.3623 12.4624C14.0341 12.7906 13.8498 13.2358 13.8499 13.6999C13.85 14.1641 14.0345 14.6092 14.3627 14.9373C14.691 15.2654 15.1361 15.4497 15.6003 15.4497C16.0644 15.4496 16.5095 15.2651 16.8376 14.9369L19.3121 12.4624C19.4747 12.2998 19.6037 12.1069 19.6917 11.8945C19.7797 11.6822 19.825 11.4545 19.825 11.2247C19.825 10.9948 19.7797 10.7672 19.6917 10.5548C19.6037 10.3424 19.4747 10.1495 19.3121 9.98699V9.98699Z" fill="white"/>
<path d="M24.7126 9.98697C25.0409 9.65883 25.4861 9.47453 25.9502 9.47461C26.4143 9.47469 26.8594 9.65915 27.1876 9.9874C27.5157 10.3157 27.7 10.7608 27.6999 11.225C27.6999 11.6891 27.5154 12.1342 27.1871 12.4623L24.7126 14.9368C24.3845 15.2651 23.9394 15.4496 23.4753 15.4496C23.0111 15.4497 22.566 15.2654 22.2377 14.9373C21.9095 14.6091 21.725 14.164 21.7249 13.6999C21.7248 13.2358 21.9091 12.7906 22.2373 12.4623L24.7126 9.98697V9.98697Z" fill="white"/>
<path d="M19.3121 26.612C18.984 26.2839 18.5389 26.0996 18.0749 26.0996C17.6109 26.0996 17.1658 26.2839 16.8376 26.612L14.3623 29.0874C14.0341 29.4156 13.8498 29.8608 13.8499 30.3249C13.85 30.7891 14.0345 31.2342 14.3627 31.5623C14.691 31.8904 15.1361 32.0747 15.6003 32.0747C16.0644 32.0746 16.5095 31.8901 16.8376 31.5619L19.3121 29.0874C19.4747 28.9248 19.6037 28.7319 19.6917 28.5195C19.7797 28.3072 19.825 28.0795 19.825 27.8497C19.825 27.6198 19.7797 27.3922 19.6917 27.1798C19.6037 26.9674 19.4747 26.7745 19.3121 26.612Z" fill="white"/>
<path d="M24.7126 26.612C25.0409 26.2838 25.4861 26.0995 25.9502 26.0996C26.4143 26.0997 26.8594 26.2841 27.1876 26.6124C27.5157 26.9407 27.7 27.3858 27.6999 27.85C27.6999 28.3141 27.5154 28.7592 27.1871 29.0873L24.7126 31.5618C24.3845 31.8901 23.9394 32.0746 23.4753 32.0746C23.0111 32.0747 22.566 31.8904 22.2377 31.5623C21.9095 31.2341 21.725 30.789 21.7249 30.3249C21.7248 29.8608 21.9091 29.4156 22.2373 29.0873L24.7126 26.612Z" fill="white"/>
<path d="M16.625 21C16.625 21.2321 16.5328 21.4546 16.3687 21.6187C16.2046 21.7828 15.9821 21.875 15.75 21.875C15.5179 21.875 15.2954 21.7828 15.1313 21.6187C14.9672 21.4546 14.875 21.2321 14.875 21C14.875 20.7679 14.9672 20.5454 15.1313 20.3813C15.2954 20.2172 15.5179 20.125 15.75 20.125C15.9821 20.125 16.2046 20.2172 16.3687 20.3813C16.5328 20.5454 16.625 20.7679 16.625 21Z" fill="white"/>
<path d="M19.25 21.875C19.4821 21.875 19.7046 21.7828 19.8687 21.6187C20.0328 21.4546 20.125 21.2321 20.125 21C20.125 20.7679 20.0328 20.5454 19.8687 20.3813C19.7046 20.2172 19.4821 20.125 19.25 20.125C19.0179 20.125 18.7954 20.2172 18.6313 20.3813C18.4672 20.5454 18.375 20.7679 18.375 21C18.375 21.2321 18.4672 21.4546 18.6313 21.6187C18.7954 21.7828 19.0179 21.875 19.25 21.875Z" fill="white"/>
<path d="M23.625 21C23.625 21.2321 23.5328 21.4546 23.3687 21.6187C23.2046 21.7828 22.9821 21.875 22.75 21.875C22.5179 21.875 22.2954 21.7828 22.1313 21.6187C21.9672 21.4546 21.875 21.2321 21.875 21C21.875 20.7679 21.9672 20.5454 22.1313 20.3813C22.2954 20.2172 22.5179 20.125 22.75 20.125C22.9821 20.125 23.2046 20.2172 23.3687 20.3813C23.5328 20.5454 23.625 20.7679 23.625 21Z" fill="white"/>
<path d="M26.25 21.875C26.4821 21.875 26.7046 21.7828 26.8687 21.6187C27.0328 21.4546 27.125 21.2321 27.125 21C27.125 20.7679 27.0328 20.5454 26.8687 20.3813C26.7046 20.2172 26.4821 20.125 26.25 20.125C26.0179 20.125 25.7954 20.2172 25.6313 20.3813C25.4672 20.5454 25.375 20.7679 25.375 21C25.375 21.2321 25.4672 21.4546 25.6313 21.6187C25.7954 21.7828 26.0179 21.875 26.25 21.875Z" fill="white"/>
<path fill-rule="evenodd" clip-rule="evenodd" d="M10.5 7C10.5 6.07174 10.8687 5.1815 11.5251 4.52513C12.1815 3.86875 13.0717 3.5 14 3.5H28C28.9283 3.5 29.8185 3.86875 30.4749 4.52513C31.1313 5.1815 31.5 6.07174 31.5 7V35C31.5 35.9283 31.1313 36.8185 30.4749 37.4749C29.8185 38.1313 28.9283 38.5 28 38.5H14C13.0717 38.5 12.1815 38.1313 11.5251 37.4749C10.8687 36.8185 10.5 35.9283 10.5 35V7ZM12.25 7C12.25 6.53587 12.4344 6.09075 12.7626 5.76256C13.0908 5.43437 13.5359 5.25 14 5.25H28C28.4641 5.25 28.9092 5.43437 29.2374 5.76256C29.5656 6.09075 29.75 6.53587 29.75 7V20.125C29.5179 20.125 29.2954 20.2172 29.1313 20.3813C28.9672 20.5454 28.875 20.7679 28.875 21C28.875 21.2321 28.9672 21.4546 29.1313 21.6187C29.2954 21.7828 29.5179 21.875 29.75 21.875V35C29.75 35.4641 29.5656 35.9092 29.2374 36.2374C28.9092 36.5656 28.4641 36.75 28 36.75H14C13.5359 36.75 13.0908 36.5656 12.7626 36.2374C12.4344 35.9092 12.25 35.4641 12.25 35V21.875C12.4821 21.875 12.7046 21.7828 12.8687 21.6187C13.0328 21.4546 13.125 21.2321 13.125 21C13.125 20.7679 13.0328 20.5454 12.8687 20.3813C12.7046 20.2172 12.4821 20.125 12.25 20.125V7Z" fill="white"/>
</svg>
