<svg width="42" height="42" viewBox="0 0 42 42" fill="none" xmlns="http://www.w3.org/2000/svg">
<path d="M40.0641 7.18594L34.8141 1.93594C34.7252 1.84262 34.6183 1.76833 34.4998 1.71756C34.3814 1.6668 34.2539 1.64062 34.125 1.64062C33.9961 1.64062 33.8686 1.6668 33.7502 1.71756C33.6317 1.76833 33.5248 1.84262 33.4359 1.93594C33.3426 2.02481 33.2683 2.13171 33.2176 2.25016C33.1668 2.36861 33.1406 2.49613 33.1406 2.625C33.1406 2.75387 33.1668 2.88139 33.2176 2.99984C33.2683 3.11829 33.3426 3.22519 33.4359 3.31406L33.9445 3.83906L24.5273 10.8938L18.1781 12.157C17.988 12.1937 17.8151 12.2917 17.6859 12.4359L3.78984 26.3156C3.45253 26.651 3.18484 27.0498 3.00219 27.4891C2.81953 27.9283 2.72549 28.3993 2.72549 28.875C2.72549 29.3507 2.81953 29.8217 3.00219 30.2609C3.18484 30.7002 3.45253 31.099 3.78984 31.4344L10.5656 38.2102C10.901 38.5475 11.2998 38.8151 11.7391 38.9978C12.1783 39.1805 12.6493 39.2745 13.125 39.2745C13.6007 39.2745 14.0717 39.1805 14.5109 38.9978C14.9502 38.8151 15.3489 38.5475 15.6844 38.2102L29.5641 24.3141C29.7083 24.1849 29.8063 24.012 29.843 23.8219L31.1062 17.4727L38.1609 8.05547L38.6859 8.56406C38.7764 8.65455 38.8838 8.72633 39.0021 8.7753C39.1203 8.82428 39.247 8.84948 39.375 8.84948C39.503 8.84948 39.6297 8.82428 39.7479 8.7753C39.8661 8.72633 39.9736 8.65455 40.0641 8.56406C40.1545 8.47357 40.2263 8.36615 40.2753 8.24792C40.3243 8.12969 40.3495 8.00297 40.3495 7.875C40.3495 7.74703 40.3243 7.62031 40.2753 7.50208C40.2263 7.38385 40.1545 7.27643 40.0641 7.18594V7.18594ZM17.0625 34.043L7.95702 24.9375L15.75 17.1445L24.8555 26.25L17.0625 34.043ZM11.9601 36.8156L5.18437 30.0398C5.02859 29.8885 4.90475 29.7074 4.82019 29.5073C4.73563 29.3072 4.69206 29.0922 4.69206 28.875C4.69206 28.6578 4.73563 28.4428 4.82019 28.2427C4.90475 28.0426 5.02859 27.8615 5.18437 27.7102L6.56249 26.332L15.668 35.4375L14.2898 36.8156C13.9797 37.1222 13.5611 37.2941 13.125 37.2941C12.6889 37.2941 12.2703 37.1222 11.9601 36.8156ZM29.4 16.4719C29.3139 16.5896 29.2525 16.7236 29.2195 16.8656L27.9726 23.1328L26.25 24.8555L17.1445 15.75L18.8672 14.0273L25.1344 12.7805C25.2764 12.7474 25.4104 12.6861 25.5281 12.6L35.3391 5.23359L36.7664 6.66094L29.4 16.4719Z" fill="white"/>
</svg>
