<svg width="42" height="42" viewBox="0 0 42 42" fill="none" xmlns="http://www.w3.org/2000/svg">
<path d="M21.8391 13.3883L30.002 18.5552L28.4795 19.6629L20.9344 14.8872L13.4628 19.6612L11.9508 18.5499L20.0244 13.3927C20.2949 13.2187 20.6095 13.1258 20.9311 13.125C21.2527 13.1242 21.5678 13.2156 21.8391 13.3883V13.3883Z" fill="white"/>
<path fill-rule="evenodd" clip-rule="evenodd" d="M5.98063 18.2997C4.96738 17.5559 5.01638 15.9818 6.07338 15.3072L20.0244 6.39265C20.2949 6.21866 20.6095 6.12578 20.9311 6.125C21.2527 6.12423 21.5678 6.21559 21.8391 6.38828L35.9205 15.3019C36.9854 15.9757 37.0344 17.5594 36.0124 18.3032L21.9328 28.5494C21.3325 28.9869 20.5319 28.9843 19.9325 28.545L5.98063 18.2988V18.2997ZM7.01575 16.7807L20.9344 7.88803L34.9843 16.7815L34.9886 16.7842L34.9895 16.7868C34.9962 16.8007 34.9998 16.8159 35 16.8314C35.0007 16.8479 34.9977 16.8643 34.9913 16.8795C34.9913 16.8822 34.9895 16.8839 34.9895 16.8839L34.9834 16.8892L20.9353 27.11L7.01663 16.8892C7.01437 16.8877 7.01232 16.8859 7.0105 16.8839L7.00788 16.8787C7.00182 16.8637 6.99913 16.8475 7 16.8314C7.00017 16.8159 7.00376 16.8007 7.0105 16.7868L7.01138 16.7842L7.01575 16.7807Z" fill="white"/>
<path d="M7.20738 21.5825L8.71938 22.6937L7.01575 23.7814C7.01419 23.7824 7.01273 23.7836 7.01138 23.7849L7.0105 23.7875C7.00388 23.8012 7.0003 23.8161 7 23.8312C6.999 23.849 7.00231 23.8667 7.00963 23.8829C7.00989 23.8835 7.01018 23.8841 7.0105 23.8846L7.01663 23.8899L20.9353 34.1108L34.9834 23.8899L34.9895 23.8846L34.9904 23.8829L34.9921 23.8803C34.9983 23.865 35.001 23.8486 35 23.8321C34.9998 23.8167 34.9962 23.8014 34.9895 23.7875L34.9886 23.7849L34.9843 23.7822L33.2518 22.685L34.7743 21.5781L35.9205 22.3035C36.9854 22.9773 37.0344 24.561 36.0124 25.3047L21.9328 35.5501C21.3325 35.9876 20.5319 35.985 19.9325 35.5458L5.98063 25.2995C4.96738 24.5558 5.01638 22.9825 6.07338 22.307L7.20738 21.5825V21.5825Z" fill="white"/>
</svg>
