<svg width="22" height="22" viewBox="0 0 22 22" fill="none" xmlns="http://www.w3.org/2000/svg">
<path d="M18.3333 1.83331H8.55556V4.88887H9.77778V3.05553H18.3333C18.7 3.05553 18.9444 3.29998 18.9444 3.66665V10.3889C18.9444 10.7555 18.7 11 18.3333 11H10.3889V15.2778H7.15001L4.8889 17.05V15.2778H3.05556C2.6889 15.2778 2.44445 15.0333 2.44445 14.6666V7.94442C2.44445 7.57776 2.6889 7.33331 3.05556 7.33331H11V6.11109H3.05556C2.01667 6.11109 1.22223 6.90553 1.22223 7.94442V14.6666C1.22223 15.7055 2.01667 16.5 3.05556 16.5H3.66667V19.6166L7.51667 16.5H11.6111V12.2222H18.3333C19.3722 12.2222 20.1667 11.4278 20.1667 10.3889V3.66665C20.1667 2.62776 19.3722 1.83331 18.3333 1.83331Z" fill="#484848"/>
<path d="M3.78888 13.9944H5.25555L5.62221 13.0167H7.51666L7.88332 13.9944H9.34999L7.27221 8.55554H5.80555L3.78888 13.9944ZM6.53888 10.0833L7.14999 11.9778H5.92777L6.53888 10.0833Z" fill="#484848"/>
<path d="M12.2222 10.3889C12.8945 10.3889 13.8111 10.2056 14.6667 9.7778C15.5222 10.2056 16.5 10.3889 17.1111 10.3889V9.16669C17.1111 9.16669 16.5 9.16669 15.8278 8.92224C16.5611 8.18891 17.1111 7.08891 17.1111 5.50002V4.88891H15.2778V3.66669H14.0556V4.88891H12.2222V6.11113H15.8278C15.7056 7.21113 15.2167 7.88335 14.6667 8.31113C14.3 8.00558 13.9333 7.5778 13.6889 7.0278H12.4056C12.65 7.82224 13.0167 8.43335 13.5056 8.92224C12.8945 9.16669 12.3445 9.16669 12.2222 9.16669V10.3889V10.3889Z" fill="#484848"/>
</svg>
