<svg width="28" height="28" viewBox="0 0 28 28" fill="none" xmlns="http://www.w3.org/2000/svg">
<path d="M21.875 15.75L20.6378 16.9872L22.8961 19.25H15.75C14.8217 19.25 13.9315 19.6187 13.2751 20.2751C12.6187 20.9315 12.25 21.8217 12.25 22.75C12.25 23.6783 12.6187 24.5685 13.2751 25.2249C13.9315 25.8813 14.8217 26.25 15.75 26.25H17.5V24.5H15.75C15.2859 24.5 14.8408 24.3156 14.5126 23.9874C14.1844 23.6592 14 23.2141 14 22.75C14 22.2859 14.1844 21.8408 14.5126 21.5126C14.8408 21.1844 15.2859 21 15.75 21H22.8961L20.636 23.2636L21.875 24.5L26.25 20.125L21.875 15.75Z" fill="#AEAEAE"/>
<path d="M8.75 19.25H3.5L3.49737 6.04275L13.5021 12.9692C13.6484 13.0705 13.8221 13.1247 14 13.1247C14.1779 13.1247 14.3516 13.0705 14.4979 12.9692L24.5 6.04625V14H26.25V5.25C26.2495 4.78601 26.065 4.34116 25.7369 4.01307C25.4088 3.68499 24.964 3.50046 24.5 3.5H3.5C3.03633 3.5 2.5916 3.68401 2.26349 4.01163C1.93538 4.33926 1.7507 4.7837 1.75 5.24738V19.25C1.75069 19.7139 1.93529 20.1586 2.26333 20.4867C2.59137 20.8147 3.03608 20.9993 3.5 21H8.75V19.25ZM22.5741 5.25L14 11.186L5.42588 5.25H22.5741Z" fill="#AEAEAE"/>
</svg>
