<svg width="42" height="42" viewBox="0 0 42 42" fill="none" xmlns="http://www.w3.org/2000/svg">
<path fill-rule="evenodd" clip-rule="evenodd" d="M17.3014 7.26411L18.6051 6.52211L19.4626 8.00786C20.0376 7.82052 20.6595 7.83574 21.2246 8.05098C21.7898 8.26621 22.2642 8.66849 22.5689 9.19086L26.5256 15.9957C26.699 16.2929 26.8118 16.6215 26.8574 16.9626C26.9031 17.3036 26.8807 17.6503 26.7916 17.9826C26.7025 18.315 26.5485 18.6264 26.3384 18.8988C26.1283 19.1713 25.8663 19.3995 25.5675 19.5701L24.8255 19.9954L25.4179 21.1407L23.0781 22.3325L22.5444 21.3026L21.9616 21.6369C21.3561 21.9829 20.6385 22.0758 19.9648 21.8954C19.2912 21.715 18.716 21.2758 18.3645 20.6735L15.8078 16.2775C13.5651 17.5672 12.019 19.0075 11.1895 20.6542C10.4913 22.0402 10.262 23.652 10.647 25.5866C11.9413 24.8714 13.3963 24.4974 14.875 24.4999C17.7363 24.4999 20.2764 25.8736 21.8724 27.9964L32.4485 22.0367L33.3165 23.5557L22.7798 29.4935C23.5913 31.2086 23.8264 33.1402 23.45 34.9999H35C35.2321 34.9999 35.4546 35.092 35.6187 35.2561C35.7828 35.4202 35.875 35.6428 35.875 35.8749C35.875 36.1069 35.7828 36.3295 35.6187 36.4936C35.4546 36.6577 35.2321 36.7499 35 36.7499H6.85301C6.37124 35.646 6.12336 34.4543 6.12501 33.2499C6.12367 32.0046 6.38877 30.7736 6.90249 29.6393C7.41622 28.5049 8.16669 27.4937 9.10351 26.6734C8.43676 24.1122 8.62663 21.8521 9.62588 19.8676C10.6636 17.8079 12.5186 16.1515 14.9284 14.7646L14.4069 13.8686C14.141 13.4128 14.0199 12.8869 14.0594 12.3607C14.0989 11.8345 14.2973 11.3326 14.6283 10.9216L13.699 9.31336L15.0194 8.56173L13.9335 6.61311L16.2348 5.34961L17.3014 7.26411V7.26411ZM25.0075 16.8655L21.0499 10.0624C20.9328 9.86156 20.7412 9.7151 20.5167 9.6548C20.2923 9.5945 20.0531 9.62525 19.8511 9.74036L16.2444 11.808C16.1448 11.8648 16.0575 11.9408 15.9875 12.0316C15.9175 12.1224 15.8662 12.2261 15.8365 12.3369C15.8068 12.4476 15.7994 12.5631 15.8145 12.6767C15.8297 12.7903 15.8673 12.8998 15.925 12.9989L19.8826 19.8037C20.125 20.222 20.6623 20.3655 21.0814 20.1249L24.6881 18.0581C24.7878 18.0013 24.8752 17.9252 24.9453 17.8344C25.0154 17.7435 25.0667 17.6397 25.0964 17.5289C25.1261 17.418 25.1336 17.3024 25.1183 17.1887C25.103 17.075 25.0654 16.9654 25.0075 16.8664V16.8655ZM21.6554 34.9999C21.8019 34.4281 21.8757 33.8401 21.875 33.2499C21.875 32.2174 21.6519 31.2374 21.2503 30.3554L17.0468 32.7249L16.1788 31.2059L20.3315 28.8652C19.3293 27.6166 17.9292 26.7492 16.3649 26.4078C14.8006 26.0664 13.1665 26.2717 11.7352 26.9893C10.3038 27.7069 9.16177 28.8935 8.49944 30.3513C7.83711 31.809 7.69454 33.4497 8.09551 34.9999H21.6554V34.9999Z" fill="white"/>
</svg>
