<svg width="42" height="42" viewBox="0 0 42 42" fill="none" xmlns="http://www.w3.org/2000/svg">
<path fill-rule="evenodd" clip-rule="evenodd" d="M23.2155 5.49063C22.3842 5.257 21.2791 5.25 20.1757 5.25C19.0242 5.25 18.2376 5.4985 17.6881 5.85025C17.1421 6.20025 16.765 6.69637 16.5042 7.30887C16.0072 8.47437 15.967 9.96625 16.0169 11.375H32.375C32.858 11.375 33.2552 11.7688 33.2001 12.2483C32.6384 17.1552 27.3901 21 21 21C14.609 21 9.36162 17.1552 8.79987 12.2483C8.74475 11.7688 9.14112 11.375 9.625 11.375H14.266C14.2161 9.94612 14.2476 8.13925 14.8942 6.62287C15.2652 5.75225 15.848 4.95162 16.7431 4.37762C17.6356 3.80625 18.7705 3.5 20.1757 3.5H20.2387C21.2642 3.5 22.6012 3.5 23.6897 3.80625C24.2567 3.9655 24.8377 4.22888 25.2822 4.69C25.7504 5.173 26.0024 5.80738 26.0024 6.5625C26.0024 6.79456 25.9102 7.01712 25.7461 7.18122C25.582 7.34531 25.3594 7.4375 25.1274 7.4375C24.8953 7.4375 24.6727 7.34531 24.5087 7.18122C24.3446 7.01712 24.2524 6.79456 24.2524 6.5625C24.2524 6.22388 24.1517 6.0375 24.0249 5.90625C23.8752 5.75137 23.6197 5.60438 23.2155 5.49063V5.49063ZM10.7677 13.125C11.7959 16.415 15.7264 19.25 21 19.25C26.2736 19.25 30.205 16.415 31.2322 13.125H10.7677ZM14 36.75V38.5H28V36.75H14Z" fill="white"/>
<path fill-rule="evenodd" clip-rule="evenodd" d="M27.2379 17.8574C27.7891 18.6082 28 19.4849 28 20.3905C28 21.7424 27.5257 23.0007 26.2937 23.8792C25.4292 24.4952 24.255 24.8784 22.75 25.0385V23.2772C23.954 23.1284 24.7573 22.8248 25.277 22.4547C25.9595 21.9682 26.25 21.297 26.25 20.3897C26.25 19.757 26.1056 19.2723 25.8274 18.8934L27.2379 17.8574V17.8574ZM19.25 23.3944V25.1462C18.4039 25.1785 17.6592 25.2582 17.0572 25.4524C16.5856 25.6038 16.2776 25.805 16.0834 26.0465C15.897 26.2775 15.75 26.6275 15.75 27.2094C15.75 27.7939 15.897 28.1457 16.0842 28.3784C16.2785 28.6208 16.5874 28.8229 17.0581 28.9752C18.0381 29.2919 19.397 29.3042 20.9598 29.3042L20.9773 29.3024C21.0158 29.2998 21.07 29.2954 21.1365 29.2937C21.2695 29.2875 21.455 29.2849 21.6746 29.2945C22.2378 29.3173 22.7945 29.4235 23.3266 29.6095C23.9453 29.8335 24.6103 30.2203 25.1186 30.8835C25.6331 31.5547 25.9324 32.4393 25.9324 33.5593C25.9324 34.6784 25.6331 35.5569 25.1064 36.2132C24.5866 36.8615 23.9076 37.215 23.2829 37.404C23.1026 37.4592 22.9241 37.5003 22.75 37.5327V35.7372L22.7763 35.7293C23.1656 35.6112 23.5007 35.4178 23.7414 35.1185C23.9759 34.8263 24.1833 34.3547 24.1833 33.5593C24.1833 32.7648 23.9759 32.2695 23.7291 31.9475C23.4771 31.6185 23.1271 31.3989 22.7316 31.2563C22.365 31.1298 21.9817 31.0578 21.5941 31.0428C21.4343 31.0353 21.2743 31.0367 21.1146 31.0472L21.0945 31.0489H21.0928L21.049 31.0542H20.9064C19.4469 31.0542 17.8001 31.0542 16.52 30.6403C15.8427 30.4215 15.1944 30.0663 14.7193 29.4739C14.2354 28.8702 14 28.1089 14 27.2094C14 26.3108 14.2362 25.5504 14.7201 24.9493C15.1952 24.3587 15.8436 24.0043 16.5209 23.7864C17.3311 23.5257 18.2866 23.4294 19.25 23.3944V23.3944Z" fill="white"/>
<path fill-rule="evenodd" clip-rule="evenodd" d="M20.2256 31.5V37.1875H21.9756V31.5H20.2256ZM20.2256 28H21.9756V19.6875H20.2256V28Z" fill="white"/>
</svg>
