<svg width="30" height="30" viewBox="0 0 30 30" fill="none" xmlns="http://www.w3.org/2000/svg">
<g clip-path="url(#clip0_150_2387)">
<path d="M18.75 5.625C19.2473 5.625 19.7242 5.82254 20.0758 6.17417C20.4275 6.52581 20.625 7.00272 20.625 7.5V22.5C20.625 22.9973 20.4275 23.4742 20.0758 23.8258C19.7242 24.1775 19.2473 24.375 18.75 24.375H11.25C10.7527 24.375 10.2758 24.1775 9.92418 23.8258C9.57254 23.4742 9.375 22.9973 9.375 22.5V7.5C9.375 7.00272 9.57254 6.52581 9.92418 6.17417C10.2758 5.82254 10.7527 5.625 11.25 5.625H18.75ZM11.25 3.75C10.2554 3.75 9.30161 4.14509 8.59835 4.84835C7.89509 5.55161 7.5 6.50544 7.5 7.5V22.5C7.5 23.4946 7.89509 24.4484 8.59835 25.1516C9.30161 25.8549 10.2554 26.25 11.25 26.25H18.75C19.7446 26.25 20.6984 25.8549 21.4016 25.1516C22.1049 24.4484 22.5 23.4946 22.5 22.5V7.5C22.5 6.50544 22.1049 5.55161 21.4016 4.84835C20.6984 4.14509 19.7446 3.75 18.75 3.75H11.25Z" fill="#AEAEAE"/>
<path d="M15 22.5003C15.4973 22.5003 15.9742 22.3028 16.3258 21.9511C16.6775 21.5995 16.875 21.1226 16.875 20.6253C16.875 20.128 16.6775 19.6511 16.3258 19.2995C15.9742 18.9478 15.4973 18.7503 15 18.7503C14.5027 18.7503 14.0258 18.9478 13.6742 19.2995C13.3225 19.6511 13.125 20.128 13.125 20.6253C13.125 21.1226 13.3225 21.5995 13.6742 21.9511C14.0258 22.3028 14.5027 22.5003 15 22.5003ZM2.99813 7.60905C3.10698 7.66665 3.20342 7.74513 3.28194 7.84C3.36045 7.93488 3.4195 8.0443 3.45572 8.162C3.49194 8.27971 3.50461 8.4034 3.49301 8.526C3.48141 8.64861 3.44577 8.76773 3.38813 8.87655C2.39108 10.7636 1.87156 12.8661 1.875 15.0003C1.875 17.2128 2.4225 19.2978 3.38813 21.1241C3.50449 21.3439 3.52877 21.6009 3.45563 21.8386C3.38249 22.0763 3.21792 22.2752 2.99813 22.3916C2.77833 22.5079 2.52131 22.5322 2.2836 22.4591C2.0459 22.3859 1.84699 22.2214 1.73063 22.0016C0.59067 19.8441 -0.00351691 17.4404 2.65109e-07 15.0003C2.65109e-07 12.4747 0.62625 10.0897 1.73063 7.99905C1.78822 7.8902 1.8667 7.79376 1.96158 7.71524C2.05645 7.63673 2.16587 7.57767 2.28358 7.54146C2.40128 7.50524 2.52497 7.49257 2.64758 7.50417C2.77018 7.51577 2.8893 7.55141 2.99813 7.60905V7.60905ZM27.0019 7.60905C27.1107 7.55141 27.2298 7.51577 27.3524 7.50417C27.475 7.49257 27.5987 7.50524 27.7164 7.54146C27.8341 7.57767 27.9435 7.63673 28.0384 7.71524C28.1333 7.79376 28.2118 7.8902 28.2694 7.99905C29.4094 10.1564 30.0036 12.5602 30 15.0003C30.0036 17.4404 29.4094 19.8442 28.2694 22.0016C28.153 22.2214 27.9541 22.3859 27.7164 22.4591C27.4787 22.5322 27.2217 22.5079 27.0019 22.3916C26.7821 22.2752 26.6175 22.0763 26.5444 21.8386C26.4712 21.6009 26.4955 21.3439 26.6119 21.1241C27.6089 19.2371 28.1284 17.1345 28.125 15.0003C28.125 12.7878 27.5775 10.7028 26.6119 8.87655C26.5542 8.76773 26.5186 8.64861 26.507 8.526C26.4954 8.4034 26.5081 8.27971 26.5443 8.162C26.5805 8.0443 26.6395 7.93488 26.7181 7.84C26.7966 7.74513 26.893 7.66665 27.0019 7.60905ZM5.73188 10.3766C5.84666 10.4213 5.9515 10.4883 6.0404 10.5736C6.12929 10.6589 6.2005 10.7608 6.24996 10.8737C6.29941 10.9865 6.32614 11.108 6.32862 11.2312C6.33109 11.3544 6.30926 11.4768 6.26438 11.5916C5.84051 12.678 5.62365 13.8341 5.625 15.0003C5.625 16.2041 5.85 17.3534 6.2625 18.4091C6.31482 18.5249 6.34303 18.6502 6.3454 18.7774C6.34777 18.9045 6.32426 19.0308 6.2763 19.1485C6.22834 19.2663 6.15693 19.373 6.06641 19.4623C5.97589 19.5516 5.86815 19.6215 5.74976 19.6679C5.63136 19.7142 5.50477 19.736 5.3777 19.7319C5.25062 19.7277 5.12571 19.6978 5.01056 19.6439C4.89542 19.59 4.79244 19.5132 4.70789 19.4183C4.62334 19.3233 4.55899 19.2122 4.51875 19.0916C4.00962 17.7877 3.74889 16.4001 3.75 15.0003C3.75 13.5584 4.02188 12.1784 4.51875 10.9091C4.60916 10.6777 4.78769 10.4917 5.01514 10.3918C5.2426 10.292 5.50038 10.2865 5.73188 10.3766V10.3766ZM24.2681 10.3766C24.3829 10.3317 24.5053 10.3098 24.6285 10.3123C24.7517 10.3148 24.8732 10.3415 24.986 10.391C25.0988 10.4404 25.2008 10.5116 25.2861 10.6005C25.3714 10.6894 25.4384 10.7943 25.4831 10.9091C25.9781 12.1784 26.25 13.5584 26.25 15.0003C26.25 16.4422 25.9781 17.8222 25.4813 19.0916C25.3823 19.3106 25.2031 19.4833 24.9805 19.574C24.7579 19.6647 24.5089 19.6664 24.2851 19.5788C24.0613 19.4912 23.8797 19.3209 23.7778 19.1033C23.6758 18.8856 23.6614 18.6371 23.7375 18.4091C24.15 17.3534 24.375 16.2041 24.375 15.0003C24.375 13.7966 24.15 12.6472 23.7375 11.5916C23.6467 11.3601 23.6517 11.102 23.7512 10.8742C23.8507 10.6463 24.0366 10.4673 24.2681 10.3766V10.3766Z" fill="#AEAEAE"/>
</g>
<defs>
<clipPath id="clip0_150_2387">
<rect width="30" height="30" fill="white"/>
</clipPath>
</defs>
</svg>
