<svg width="42" height="42" viewBox="0 0 42 42" fill="none" xmlns="http://www.w3.org/2000/svg">
<path fill-rule="evenodd" clip-rule="evenodd" d="M12.6875 18.375C14.1959 18.375 15.6426 17.7758 16.7092 16.7092C17.7758 15.6426 18.375 14.1959 18.375 12.6875C18.375 11.1791 17.7758 9.73244 16.7092 8.66583C15.6426 7.59922 14.1959 7 12.6875 7C11.1791 7 9.73244 7.59922 8.66583 8.66583C7.59922 9.73244 7 11.1791 7 12.6875C7 14.1959 7.59922 15.6426 8.66583 16.7092C9.73244 17.7758 11.1791 18.375 12.6875 18.375V18.375ZM12.6875 20.125C14.66 20.125 16.5518 19.3414 17.9466 17.9466C19.3414 16.5518 20.125 14.66 20.125 12.6875C20.125 10.715 19.3414 8.8232 17.9466 7.42839C16.5518 6.03359 14.66 5.25 12.6875 5.25C10.715 5.25 8.8232 6.03359 7.42839 7.42839C6.03359 8.8232 5.25 10.715 5.25 12.6875C5.25 14.66 6.03359 16.5518 7.42839 17.9466C8.8232 19.3414 10.715 20.125 12.6875 20.125V20.125Z" fill="white"/>
<path fill-rule="evenodd" clip-rule="evenodd" d="M16.0475 10.4625C16.1109 10.5583 16.1549 10.6657 16.1768 10.7785C16.1987 10.8913 16.1982 11.0073 16.1753 11.12C16.1524 11.2326 16.1075 11.3396 16.0432 11.4349C15.979 11.5301 15.8966 11.6118 15.8007 11.6752L10.5411 15.1612C10.3477 15.2882 10.1118 15.3333 9.88519 15.2868C9.65855 15.2403 9.45955 15.106 9.33172 14.9131C9.20389 14.7203 9.15764 14.4846 9.20308 14.2578C9.24853 14.0309 9.38197 13.8313 9.57422 13.7026L14.8347 10.2157C14.9305 10.1523 15.0379 10.1083 15.1507 10.0864C15.2636 10.0645 15.3796 10.065 15.4922 10.0879C15.6048 10.1108 15.7118 10.1557 15.8071 10.2199C15.9024 10.2842 15.9841 10.3666 16.0475 10.4625V10.4625Z" fill="white"/>
<path fill-rule="evenodd" clip-rule="evenodd" d="M29.3125 18.375C30.8209 18.375 32.2676 17.7758 33.3342 16.7092C34.4008 15.6426 35 14.1959 35 12.6875C35 11.1791 34.4008 9.73244 33.3342 8.66583C32.2676 7.59922 30.8209 7 29.3125 7C27.8041 7 26.3574 7.59922 25.2908 8.66583C24.2242 9.73244 23.625 11.1791 23.625 12.6875C23.625 14.1959 24.2242 15.6426 25.2908 16.7092C26.3574 17.7758 27.8041 18.375 29.3125 18.375V18.375ZM29.3125 20.125C31.285 20.125 33.1768 19.3414 34.5716 17.9466C35.9664 16.5518 36.75 14.66 36.75 12.6875C36.75 10.715 35.9664 8.8232 34.5716 7.42839C33.1768 6.03359 31.285 5.25 29.3125 5.25C27.34 5.25 25.4482 6.03359 24.0534 7.42839C22.6586 8.8232 21.875 10.715 21.875 12.6875C21.875 14.66 22.6586 16.5518 24.0534 17.9466C25.4482 19.3414 27.34 20.125 29.3125 20.125Z" fill="white"/>
<path fill-rule="evenodd" clip-rule="evenodd" d="M27.9151 8.90791C28.0229 8.86802 28.1375 8.84976 28.2524 8.85416C28.3672 8.85856 28.48 8.88554 28.5845 8.93356C28.6889 8.98158 28.7828 9.0497 28.8609 9.13403C28.939 9.21836 28.9997 9.31724 29.0395 9.42503L31.227 15.3444C31.2669 15.4522 31.2851 15.5668 31.2807 15.6816C31.2763 15.7964 31.2493 15.9093 31.2013 16.0137C31.1533 16.1181 31.0852 16.212 31.0009 16.2901C30.9166 16.3682 30.8177 16.4289 30.7099 16.4688C30.6021 16.5087 30.4875 16.5269 30.3727 16.5225C30.2579 16.5181 30.145 16.4911 30.0406 16.4431C29.9362 16.3951 29.8423 16.327 29.7642 16.2426C29.6861 16.1583 29.6254 16.0594 29.5855 15.9517L27.398 10.0314C27.3177 9.81395 27.3269 9.57351 27.4237 9.36286C27.5205 9.15222 27.6969 8.98859 27.9143 8.90791H27.9151Z" fill="white"/>
<path fill-rule="evenodd" clip-rule="evenodd" d="M12.6875 35C14.1959 35 15.6426 34.4008 16.7092 33.3342C17.7758 32.2676 18.375 30.8209 18.375 29.3125C18.375 27.8041 17.7758 26.3574 16.7092 25.2908C15.6426 24.2242 14.1959 23.625 12.6875 23.625C11.1791 23.625 9.73244 24.2242 8.66583 25.2908C7.59922 26.3574 7 27.8041 7 29.3125C7 30.8209 7.59922 32.2676 8.66583 33.3342C9.73244 34.4008 11.1791 35 12.6875 35V35ZM12.6875 36.75C14.66 36.75 16.5518 35.9664 17.9466 34.5716C19.3414 33.1768 20.125 31.285 20.125 29.3125C20.125 27.34 19.3414 25.4482 17.9466 24.0534C16.5518 22.6586 14.66 21.875 12.6875 21.875C10.715 21.875 8.8232 22.6586 7.42839 24.0534C6.03359 25.4482 5.25 27.34 5.25 29.3125C5.25 31.285 6.03359 33.1768 7.42839 34.5716C8.8232 35.9664 10.715 36.75 12.6875 36.75V36.75Z" fill="white"/>
<path fill-rule="evenodd" clip-rule="evenodd" d="M14.2406 33.0307C14.0265 33.1202 13.7857 33.1209 13.5711 33.0328C13.3564 32.9447 13.1856 32.7749 13.0961 32.5609L10.6636 26.7377C10.6194 26.6316 10.5965 26.5178 10.5962 26.4029C10.5959 26.2879 10.6183 26.174 10.6621 26.0677C10.7058 25.9614 10.7701 25.8647 10.8512 25.7832C10.9323 25.7017 11.0287 25.637 11.1348 25.5928C11.2409 25.5486 11.3547 25.5257 11.4697 25.5254C11.5846 25.5251 11.6985 25.5475 11.8048 25.5913C11.9112 25.635 12.0078 25.6993 12.0893 25.7804C12.1708 25.8615 12.2355 25.9579 12.2797 26.064L14.7105 31.8871C14.7999 32.1012 14.8006 32.342 14.7125 32.5567C14.6244 32.7713 14.4546 32.9421 14.2406 33.0316V33.0307Z" fill="white"/>
<path fill-rule="evenodd" clip-rule="evenodd" d="M29.3125 35C30.8209 35 32.2676 34.4008 33.3342 33.3342C34.4008 32.2676 35 30.8209 35 29.3125C35 27.8041 34.4008 26.3574 33.3342 25.2908C32.2676 24.2242 30.8209 23.625 29.3125 23.625C27.8041 23.625 26.3574 24.2242 25.2908 25.2908C24.2242 26.3574 23.625 27.8041 23.625 29.3125C23.625 30.8209 24.2242 32.2676 25.2908 33.3342C26.3574 34.4008 27.8041 35 29.3125 35V35ZM29.3125 36.75C31.285 36.75 33.1768 35.9664 34.5716 34.5716C35.9664 33.1768 36.75 31.285 36.75 29.3125C36.75 27.34 35.9664 25.4482 34.5716 24.0534C33.1768 22.6586 31.285 21.875 29.3125 21.875C27.34 21.875 25.4482 22.6586 24.0534 24.0534C22.6586 25.4482 21.875 27.34 21.875 29.3125C21.875 31.285 22.6586 33.1768 24.0534 34.5716C25.4482 35.9664 27.34 36.75 29.3125 36.75Z" fill="white"/>
<path fill-rule="evenodd" clip-rule="evenodd" d="M32.3654 26.6802C32.5168 26.8561 32.5921 27.0848 32.5749 27.3161C32.5577 27.5475 32.4493 27.7625 32.2735 27.914L27.4943 32.0352C27.4078 32.1135 27.3065 32.1736 27.1964 32.2121C27.0863 32.2506 26.9697 32.2667 26.8533 32.2595C26.7369 32.2523 26.6231 32.2219 26.5186 32.17C26.4141 32.1182 26.3211 32.046 26.2449 31.9577C26.1687 31.8694 26.111 31.7668 26.0751 31.6558C26.0391 31.5449 26.0257 31.4279 26.0356 31.3117C26.0456 31.1955 26.0786 31.0824 26.1329 30.9792C26.1871 30.8759 26.2615 30.7846 26.3515 30.7105L31.1308 26.5892C31.3065 26.4378 31.5351 26.3623 31.7665 26.3793C31.9978 26.3964 32.2129 26.5046 32.3645 26.6802H32.3654Z" fill="white"/>
</svg>
