<svg width="42" height="42" viewBox="0 0 42 42" fill="none" xmlns="http://www.w3.org/2000/svg">
<path fill-rule="evenodd" clip-rule="evenodd" d="M21 18.375C22.5084 18.375 23.9551 17.7758 25.0217 16.7092C26.0883 15.6426 26.6875 14.1959 26.6875 12.6875C26.6875 11.1791 26.0883 9.73244 25.0217 8.66583C23.9551 7.59922 22.5084 7 21 7C19.4916 7 18.0449 7.59922 16.9783 8.66583C15.9117 9.73244 15.3125 11.1791 15.3125 12.6875C15.3125 14.1959 15.9117 15.6426 16.9783 16.7092C18.0449 17.7758 19.4916 18.375 21 18.375V18.375ZM21 20.125C22.9725 20.125 24.8643 19.3414 26.2591 17.9466C27.6539 16.5518 28.4375 14.66 28.4375 12.6875C28.4375 10.715 27.6539 8.8232 26.2591 7.42839C24.8643 6.03359 22.9725 5.25 21 5.25C19.0275 5.25 17.1357 6.03359 15.7409 7.42839C14.3461 8.8232 13.5625 10.715 13.5625 12.6875C13.5625 14.66 14.3461 16.5518 15.7409 17.9466C17.1357 19.3414 19.0275 20.125 21 20.125V20.125Z" fill="white"/>
<path fill-rule="evenodd" clip-rule="evenodd" d="M21.336 8.67103C21.4506 8.68051 21.5622 8.71249 21.6644 8.76512C21.7666 8.81776 21.8574 8.89002 21.9317 8.97779C22.006 9.06555 22.0622 9.16709 22.0972 9.2766C22.1323 9.38612 22.1453 9.50145 22.1357 9.61603L21.609 15.9047C21.5896 16.136 21.4791 16.3502 21.3018 16.5001C21.1245 16.65 20.8949 16.7233 20.6636 16.704C20.4322 16.6846 20.218 16.5741 20.0681 16.3968C19.9182 16.2195 19.8449 15.9899 19.8642 15.7585L20.3919 9.4699C20.4113 9.23865 20.5217 9.02457 20.6989 8.87475C20.8761 8.72493 21.1056 8.65165 21.3369 8.67103H21.336Z" fill="white"/>
<path fill-rule="evenodd" clip-rule="evenodd" d="M12.6875 35C14.1959 35 15.6426 34.4008 16.7092 33.3342C17.7758 32.2676 18.375 30.8209 18.375 29.3125C18.375 27.8041 17.7758 26.3574 16.7092 25.2908C15.6426 24.2242 14.1959 23.625 12.6875 23.625C11.1791 23.625 9.73244 24.2242 8.66583 25.2908C7.59922 26.3574 7 27.8041 7 29.3125C7 30.8209 7.59922 32.2676 8.66583 33.3342C9.73244 34.4008 11.1791 35 12.6875 35V35ZM12.6875 36.75C14.66 36.75 16.5518 35.9664 17.9466 34.5716C19.3414 33.1768 20.125 31.285 20.125 29.3125C20.125 27.34 19.3414 25.4482 17.9466 24.0534C16.5518 22.6586 14.66 21.875 12.6875 21.875C10.715 21.875 8.8232 22.6586 7.42839 24.0534C6.03359 25.4482 5.25 27.34 5.25 29.3125C5.25 31.285 6.03359 33.1768 7.42839 34.5716C8.8232 35.9664 10.715 36.75 12.6875 36.75V36.75Z" fill="white"/>
<path fill-rule="evenodd" clip-rule="evenodd" d="M15.5374 32.1622C15.3733 32.3262 15.1508 32.4184 14.9187 32.4184C14.6867 32.4184 14.4642 32.3262 14.3001 32.1622L9.83762 27.6997C9.67823 27.5346 9.59003 27.3136 9.59203 27.0842C9.59402 26.8548 9.68604 26.6353 9.84828 26.4731C10.0105 26.3108 10.23 26.2188 10.4594 26.2168C10.6888 26.2148 10.9098 26.303 11.0749 26.4624L15.5374 30.9249C15.7014 31.089 15.7936 31.3115 15.7936 31.5435C15.7936 31.7756 15.7014 31.9981 15.5374 32.1622V32.1622Z" fill="white"/>
<path fill-rule="evenodd" clip-rule="evenodd" d="M29.3125 33.25C30.8209 33.25 32.2676 32.6508 33.3342 31.5842C34.4008 30.5176 35 29.0709 35 27.5625C35 26.0541 34.4008 24.6074 33.3342 23.5408C32.2676 22.4742 30.8209 21.875 29.3125 21.875C27.8041 21.875 26.3574 22.4742 25.2908 23.5408C24.2242 24.6074 23.625 26.0541 23.625 27.5625C23.625 29.0709 24.2242 30.5176 25.2908 31.5842C26.3574 32.6508 27.8041 33.25 29.3125 33.25V33.25ZM29.3125 35C31.285 35 33.1768 34.2164 34.5716 32.8216C35.9664 31.4268 36.75 29.535 36.75 27.5625C36.75 25.59 35.9664 23.6982 34.5716 22.3034C33.1768 20.9086 31.285 20.125 29.3125 20.125C27.34 20.125 25.4482 20.9086 24.0534 22.3034C22.6586 23.6982 21.875 25.59 21.875 27.5625C21.875 29.535 22.6586 31.4268 24.0534 32.8216C25.4482 34.2164 27.34 35 29.3125 35Z" fill="white"/>
<path fill-rule="evenodd" clip-rule="evenodd" d="M33.0391 26.0264C33.0829 26.1327 33.1054 26.2466 33.1052 26.3616C33.105 26.4765 33.0821 26.5903 33.0379 26.6965C32.9937 26.8026 32.929 26.899 32.8476 26.9801C32.7661 27.0612 32.6694 27.1255 32.5631 27.1692L26.7286 29.5737C26.514 29.6621 26.273 29.6616 26.0587 29.5724C25.8444 29.4831 25.6743 29.3124 25.5859 29.0977C25.4974 28.883 25.4979 28.642 25.5872 28.4277C25.6765 28.2134 25.8472 28.0434 26.0619 27.9549L31.8964 25.5504C32.0026 25.5066 32.1165 25.4842 32.2315 25.4844C32.3465 25.4846 32.4603 25.5074 32.5664 25.5516C32.6725 25.5959 32.7689 25.6605 32.85 25.742C32.9311 25.8235 32.9954 25.9201 33.0391 26.0264V26.0264Z" fill="white"/>
</svg>
