<svg width="42" height="42" viewBox="0 0 42 42" fill="none" xmlns="http://www.w3.org/2000/svg">
<path d="M34.8141 7.18533C34.0374 6.3996 33.1125 5.7758 32.0931 5.35005C31.0736 4.9243 29.9798 4.70508 28.875 4.70508C27.7702 4.70508 26.6764 4.9243 25.6569 5.35005C24.6374 5.7758 23.7126 6.3996 22.9359 7.18533L7.18593 22.9353C5.61101 24.5106 4.72626 26.6469 4.72626 28.8744C4.72626 31.1019 5.61101 33.2382 7.18593 34.8135C7.96259 35.5992 8.88744 36.223 9.90691 36.6487C10.9264 37.0745 12.0202 37.2937 13.125 37.2937C14.2298 37.2937 15.3236 37.0745 16.3431 36.6487C17.3625 36.223 18.2874 35.5992 19.0641 34.8135L34.8141 19.0635C36.389 17.4882 37.2737 15.3519 37.2737 13.1244C37.2737 10.8969 36.389 8.76059 34.8141 7.18533V7.18533ZM17.6859 33.4353C16.4763 34.645 14.8357 35.3245 13.125 35.3245C11.4143 35.3245 9.77369 34.645 8.56405 33.4353C7.35442 32.2257 6.67485 30.5851 6.67485 28.8744C6.67485 27.1637 7.35442 25.5231 8.56405 24.3135L15.75 17.1439L24.8555 26.2494L17.6859 33.4353ZM33.4359 17.6853L26.25 24.8549L17.1445 15.7494L24.3141 8.56346C25.5237 7.35382 27.1643 6.67426 28.875 6.67426C30.5857 6.67426 32.2263 7.35382 33.4359 8.56346C34.6456 9.77309 35.3251 11.4137 35.3251 13.1244C35.3251 14.8351 34.6456 16.4757 33.4359 17.6853ZM30.975 13.8299C31.1542 14.0188 31.2528 14.2701 31.2497 14.5305C31.2466 14.7908 31.1422 15.0398 30.9586 15.2244L26.9391 19.0963C26.7607 19.2747 26.5187 19.3751 26.2664 19.3752C26.1332 19.3775 26.0012 19.3508 25.8794 19.2969C25.7576 19.2431 25.6489 19.1634 25.5609 19.0635C25.4707 18.9723 25.3995 18.8642 25.3515 18.7453C25.3034 18.6264 25.2794 18.4992 25.281 18.371C25.2825 18.2427 25.3095 18.1161 25.3603 17.9984C25.4112 17.8807 25.485 17.7743 25.5773 17.6853L29.5805 13.8135C29.673 13.7228 29.7825 13.6512 29.9027 13.6029C30.023 13.5547 30.1516 13.5306 30.2811 13.5321C30.4107 13.5336 30.5387 13.5607 30.6577 13.6118C30.7768 13.6629 30.8846 13.737 30.975 13.8299V13.8299Z" fill="white"/>
</svg>
