<svg width="42" height="42" viewBox="0 0 42 42" fill="none" xmlns="http://www.w3.org/2000/svg">
<path d="M30.4343 4.90252C30.4344 4.28778 30.1904 3.69815 29.7558 3.26334C29.3213 2.82853 28.7318 2.58416 28.117 2.58398C27.8127 2.5839 27.5112 2.64377 27.23 2.76017C26.9487 2.87658 26.6932 3.04724 26.4779 3.26241C26.0431 3.69697 25.7987 4.28646 25.7985 4.9012C25.7985 6.18089 28.1164 10.5016 28.1164 10.5016C28.1164 10.5016 30.4343 6.18089 30.4343 4.9012V4.90252ZM27.0086 4.90252C27.0034 4.75393 27.0282 4.60581 27.0814 4.46699C27.1347 4.32818 27.2153 4.2015 27.3186 4.09451C27.4218 3.98752 27.5456 3.90241 27.6824 3.84426C27.8192 3.7861 27.9664 3.75608 28.115 3.75599C28.2637 3.7559 28.4109 3.78575 28.5478 3.84374C28.6847 3.90174 28.8085 3.9867 28.9119 4.09357C29.0153 4.20043 29.0961 4.32701 29.1495 4.46577C29.2029 4.60452 29.2278 4.75261 29.2228 4.9012C29.2131 5.18823 29.0923 5.46027 28.8859 5.65995C28.6795 5.85962 28.4036 5.97132 28.1164 5.97149C27.8292 5.97166 27.5531 5.86029 27.3465 5.66086C27.1398 5.46143 27.0187 5.18953 27.0086 4.90252ZM33.1813 24.275C32.4463 24.275 31.7415 24.3367 31.0944 24.4365L14.5688 18.3438C14.8313 18.1076 14.9783 17.8451 14.9783 17.5695C14.9749 17.4242 14.9352 17.282 14.8628 17.156L25.9009 14.2186C26.5046 14.3985 27.2436 14.5074 28.0613 14.5074C30.0563 14.5074 31.6706 13.8721 31.6706 13.0873C31.6706 12.2998 30.0563 11.6658 28.0613 11.6658C26.0663 11.6658 24.4519 12.3024 24.4519 13.0873C24.4519 13.1791 24.4781 13.2671 24.5228 13.3524L12.9885 16.0128C12.0214 15.74 11.0205 15.6061 10.0157 15.6151C7.27651 15.6151 5.05444 16.4906 5.05444 17.5708C5.05444 18.651 7.27651 19.5264 10.0157 19.5264C10.7691 19.5264 11.4726 19.4542 12.1131 19.3361L27.8499 25.7227C27.6006 25.9747 27.4483 26.2477 27.4483 26.5404C27.4483 26.7898 27.5743 27.0181 27.7581 27.24L11.4122 33.3575C11.2048 33.351 10.9974 33.3444 10.7861 33.3444C6.53363 33.3444 3.08176 34.7041 3.08176 36.3763C3.08176 38.0523 6.53363 39.4121 10.7861 39.4121C15.0386 39.4121 18.4905 38.055 18.4905 36.3776C18.4905 36.0888 18.3816 35.8106 18.1886 35.5468L31.6628 28.7034C32.1484 28.7559 32.6511 28.7887 33.1787 28.7887C36.3458 28.7887 38.9143 27.7781 38.9143 26.5273C38.9143 25.2883 36.3458 24.275 33.1787 24.275H33.1813Z" fill="white"/>
</svg>
