<svg width="42" height="42" viewBox="0 0 42 42" fill="none" xmlns="http://www.w3.org/2000/svg">
<path d="M38.9813 21.9516L33.7313 8.82656H33.7148L33.6656 8.71172C33.6656 8.70737 33.6639 8.70319 33.6608 8.70012C33.6577 8.69704 33.6536 8.69531 33.6492 8.69531C33.6332 8.65896 33.611 8.62566 33.5836 8.59688H33.5672L33.4852 8.49844C33.4808 8.49844 33.4766 8.49671 33.4736 8.49363C33.4705 8.49056 33.4687 8.48638 33.4687 8.48203L33.3867 8.41641H33.3539L33.2555 8.35078C33.2391 8.35078 33.2227 8.35078 33.2227 8.33437L33.1242 8.30156H33.0914L32.9766 8.26875H32.5992L21.9844 10.582V6.5625C21.9844 6.30143 21.8807 6.05105 21.6961 5.86644C21.5115 5.68184 21.2611 5.57813 21 5.57812C20.7389 5.57813 20.4885 5.68184 20.3039 5.86644C20.1193 6.05105 20.0156 6.30143 20.0156 6.5625V11.025L8.97422 13.4695H8.89219L8.76094 13.5188H8.74453L8.64609 13.5844H8.62969L8.53125 13.65H8.51484L8.43281 13.7484H8.41641L8.35078 13.8469H8.33437C8.31614 13.8871 8.29417 13.9256 8.26875 13.9617L3.01875 27.0867C2.95348 27.2362 2.93077 27.4009 2.95312 27.5625C2.95312 31.1555 6.77578 32.4844 9.1875 32.4844C11.5992 32.4844 15.4219 31.1555 15.4219 27.5625C15.4254 27.4389 15.4031 27.316 15.3562 27.2016L10.5328 15.143L20.0156 13.043V34.4531H17.0625C16.8014 34.4531 16.551 34.5568 16.3664 34.7414C16.1818 34.926 16.0781 35.1764 16.0781 35.4375C16.0781 35.6986 16.1818 35.949 16.3664 36.1336C16.551 36.3182 16.8014 36.4219 17.0625 36.4219H24.9375C25.1986 36.4219 25.449 36.3182 25.6336 36.1336C25.8182 35.949 25.9219 35.6986 25.9219 35.4375C25.9219 35.1764 25.8182 34.926 25.6336 34.7414C25.449 34.5568 25.1986 34.4531 24.9375 34.4531H21.9844V12.6L31.2047 10.5492L26.6437 21.9516C26.5969 22.066 26.5746 22.1889 26.5781 22.3125C26.5781 25.9055 30.4008 27.2344 32.8125 27.2344C35.2242 27.2344 39.0469 25.9055 39.0469 22.3125C39.0504 22.1889 39.0281 22.066 38.9813 21.9516ZM9.1875 30.5156C8.18239 30.5083 7.19519 30.2488 6.31641 29.7609C5.44687 29.2523 4.9875 28.5961 4.92187 27.743L9.1875 17.0953L13.4531 27.743C13.3055 30.007 10.2703 30.5156 9.1875 30.5156ZM32.8125 25.2656C31.8074 25.2583 30.8202 24.9988 29.9414 24.5109C29.0719 24.0023 28.6125 23.3461 28.5469 22.493L32.8125 11.8453L37.0781 22.493C36.9305 24.757 33.8953 25.2656 32.8125 25.2656Z" fill="white"/>
</svg>
