<svg width="42" height="42" viewBox="0 0 42 42" fill="none" xmlns="http://www.w3.org/2000/svg">
<path d="M18.375 21.7744L14.9756 18.375L13.125 20.2256L18.375 25.4756L28.875 14.9756L27.0244 13.125L18.375 21.7744Z" fill="#82C122"/>
<path d="M21 39.375L12.894 35.0529C10.5831 33.8235 8.65065 31.9881 7.30397 29.7435C5.95728 27.499 5.24723 24.9301 5.25001 22.3125V5.25C5.2507 4.55402 5.52749 3.88674 6.01962 3.39461C6.51175 2.90248 7.17903 2.62569 7.87501 2.625H34.125C34.821 2.62569 35.4883 2.90248 35.9804 3.39461C36.4725 3.88674 36.7493 4.55402 36.75 5.25V22.3125C36.7528 24.9301 36.0427 27.499 34.6961 29.7435C33.3494 31.9881 31.4169 33.8235 29.106 35.0529L21 39.375ZM7.87501 5.25V22.3125C7.87283 24.4542 8.45396 26.5561 9.55601 28.3926C10.6581 30.229 12.2394 31.7307 14.1304 32.7364L21 36.3996L27.8696 32.7377C29.7608 31.7319 31.3423 30.23 32.4443 28.3933C33.5464 26.5566 34.1274 24.4545 34.125 22.3125V5.25H7.87501Z" fill="#82C122"/>
</svg>
