<svg width="46" height="46" viewBox="0 0 46 46" fill="none" xmlns="http://www.w3.org/2000/svg">
<path d="M35.5388 15.0793C35.6621 15.1094 35.7902 15.1146 35.9155 15.0948C36.0409 15.075 36.1611 15.0305 36.2691 14.9638C36.3771 14.8972 36.4708 14.8097 36.5447 14.7066C36.6186 14.6034 36.6714 14.4866 36.6998 14.3629C36.7282 14.2392 36.7318 14.1111 36.7103 13.9861C36.6888 13.861 36.6427 13.7414 36.5747 13.6343C36.5066 13.5272 36.4179 13.4346 36.3138 13.3621C36.2097 13.2895 36.0922 13.2383 35.9682 13.2115L29.6278 11.7549C29.5036 11.7218 29.3739 11.7141 29.2466 11.7322C29.1193 11.7503 28.997 11.7938 28.8868 11.8602C28.7767 11.9266 28.6811 12.0144 28.6056 12.1185C28.5301 12.2227 28.4764 12.3409 28.4476 12.4662C28.4187 12.5915 28.4154 12.7213 28.4378 12.848C28.4602 12.9746 28.5079 13.0954 28.578 13.2032C28.648 13.311 28.7391 13.4036 28.8457 13.4755C28.9523 13.5474 29.0723 13.5971 29.1985 13.6217L35.5388 15.0793Z" fill="#82C122"/>
<path fill-rule="evenodd" clip-rule="evenodd" d="M32.5833 21.0833C34.6166 21.0833 36.5667 20.2756 38.0045 18.8378C39.4423 17.4 40.25 15.45 40.25 13.4167C40.25 11.3833 39.4423 9.43329 38.0045 7.99551C36.5667 6.55774 34.6166 5.75 32.5833 5.75C30.55 5.75 28.5999 6.55774 27.1622 7.99551C25.7244 9.43329 24.9167 11.3833 24.9167 13.4167C24.9167 15.45 25.7244 17.4 27.1622 18.8378C28.5999 20.2756 30.55 21.0833 32.5833 21.0833V21.0833ZM32.5833 19.1667C33.3384 19.1667 34.0861 19.0179 34.7838 18.729C35.4814 18.44 36.1153 18.0165 36.6492 17.4825C37.1831 16.9486 37.6067 16.3147 37.8956 15.6171C38.1846 14.9195 38.3333 14.1718 38.3333 13.4167C38.3333 12.6616 38.1846 11.9139 37.8956 11.2162C37.6067 10.5186 37.1831 9.88474 36.6492 9.3508C36.1153 8.81687 35.4814 8.39332 34.7838 8.10436C34.0861 7.8154 33.3384 7.66667 32.5833 7.66667C31.0583 7.66667 29.5958 8.27247 28.5175 9.3508C27.4391 10.4291 26.8333 11.8917 26.8333 13.4167C26.8333 14.9417 27.4391 16.4042 28.5175 17.4825C29.5958 18.5609 31.0583 19.1667 32.5833 19.1667V19.1667Z" fill="#82C122"/>
<path fill-rule="evenodd" clip-rule="evenodd" d="M16.0789 8.85976C15.4589 7.39159 13.3831 7.24401 12.5503 8.60771L6.02983 19.2768C5.27754 20.5073 6.11799 22.079 7.5852 22.1835L18.9568 22.9942C20.423 23.0996 21.4906 21.664 20.931 20.3396L16.0789 8.85976ZM14.1939 9.59576C14.1907 9.59937 14.1878 9.60321 14.1852 9.60726L7.67624 20.2591L7.67816 20.261C7.68118 20.2627 7.6844 20.264 7.68774 20.2649C7.6989 20.2686 7.7105 20.2709 7.72224 20.2716L19.0948 21.0823C19.114 21.0843 19.1255 21.0823 19.1312 21.0823C19.1417 21.0804 19.1514 21.0754 19.159 21.068L14.3137 9.6063L14.3098 9.59671C14.2938 9.58855 14.2761 9.58397 14.2581 9.5833C14.2379 9.58136 14.2175 9.58432 14.1987 9.59192L14.1958 9.59288V9.59384L14.1939 9.59576V9.59576Z" fill="#82C122"/>
<path fill-rule="evenodd" clip-rule="evenodd" d="M33.9106 34.8452C35.2929 34.2008 36.3626 33.0336 36.8843 31.6005C37.406 30.1674 37.3371 28.5857 36.6927 27.2034C36.3736 26.519 35.9228 25.9041 35.3661 25.3939C34.8093 24.8837 34.1576 24.4881 33.448 24.2298C32.0149 23.708 30.4332 23.777 29.0509 24.4214L18.6281 29.2821C17.9437 29.6012 17.3289 30.0519 16.8187 30.6086C16.3086 31.1653 15.913 31.8171 15.6547 32.5266C15.3965 33.2362 15.2804 33.9897 15.3134 34.7441C15.3463 35.4984 15.5274 36.239 15.8465 36.9233C16.1656 37.6077 16.6164 38.2225 17.1731 38.7327C17.7298 39.2429 18.3815 39.6384 19.0911 39.8967C19.8006 40.155 20.5541 40.271 21.3085 40.2381C22.0629 40.2052 22.8034 40.024 23.4878 39.7049L33.9106 34.8442V34.8452ZM19.4379 31.0195C18.9766 31.2291 18.5615 31.528 18.2165 31.8989C17.8714 32.2699 17.6034 32.7055 17.4277 33.1807C17.2521 33.6559 17.1724 34.1612 17.1933 34.6674C17.2141 35.1736 17.3351 35.6706 17.5492 36.1298C17.7634 36.5889 18.0664 37.001 18.4407 37.3424C18.8151 37.6837 19.2534 37.9474 19.7303 38.1183C20.2073 38.2892 20.7133 38.3638 21.2193 38.3379C21.7252 38.312 22.221 38.1861 22.678 37.9674L26.9579 35.9712L23.7188 29.0233L19.4379 31.0186V31.0195ZM28.6954 35.1614L25.4553 28.2135L29.8607 26.1589C30.318 25.9376 30.8148 25.8095 31.322 25.782C31.8293 25.7544 32.337 25.8279 32.8156 25.9983C33.2942 26.1687 33.7341 26.4325 34.1099 26.7744C34.4856 27.1163 34.7897 27.5295 35.0043 27.9899C35.219 28.4503 35.34 28.9488 35.3603 29.4565C35.3806 29.9641 35.2998 30.4706 35.1226 30.9468C34.9454 31.4229 34.6753 31.859 34.3281 32.2298C33.9808 32.6006 33.5633 32.8987 33.0999 33.1068L28.6954 35.1614V35.1614Z" fill="#82C122"/>
</svg>
