<svg width="46" height="46" viewBox="0 0 46 46" fill="none" xmlns="http://www.w3.org/2000/svg">
<path d="M28.6925 18.432C29.2562 18.4322 29.8002 18.6393 30.2213 19.0141C30.6423 19.3889 30.911 19.9053 30.9764 20.4652L30.9925 20.732V30.7784C31.0075 32.8757 30.1997 34.8953 28.7424 36.4036C27.2852 37.912 25.2946 38.7889 23.1981 38.8461C21.1015 38.9033 19.0661 38.1362 17.5287 36.7096C15.9914 35.2829 15.0746 33.3104 14.9753 31.2154L14.9638 30.7784V20.732C14.9639 20.1683 15.1711 19.6243 15.5459 19.2033C15.9207 18.7822 16.4371 18.5135 16.997 18.4481L17.2638 18.432H28.6925ZM28.6925 20.732H17.2638V30.7784C17.2605 32.2634 17.8355 33.6913 18.8669 34.7596C19.8984 35.8279 21.3053 36.4526 22.7894 36.5013C24.2736 36.5501 25.7185 36.019 26.8178 35.0207C27.9171 34.0224 28.5846 32.6353 28.6787 31.1533L28.6925 30.7784V20.732V20.732ZM13.2825 18.432C12.9478 19.0095 12.7437 19.6532 12.6845 20.318L12.6638 20.732H6.9368V29.334C6.93655 30.0471 7.11496 30.7489 7.45571 31.3753C7.79647 32.0018 8.28873 32.5328 8.88753 32.9201C9.48634 33.3073 10.1726 33.5383 10.8837 33.5921C11.5948 33.6459 12.308 33.5207 12.9582 33.2279C13.1422 33.9846 13.409 34.7091 13.7517 35.3899C12.7832 35.7967 11.7313 35.9652 10.6842 35.8814C9.63712 35.7976 8.62539 35.464 7.7339 34.9084C6.84241 34.3528 6.09716 33.5915 5.56067 32.6884C5.02418 31.7853 4.71209 30.7667 4.6506 29.7181L4.6391 29.3317V20.732C4.63917 20.1687 4.846 19.6249 5.22034 19.204C5.59469 18.783 6.11052 18.514 6.67 18.4481L6.9391 18.432H13.2802H13.2825ZM32.6761 18.432H39.0793C39.643 18.4322 40.187 18.6393 40.6081 19.0141C41.0291 19.3889 41.2978 19.9053 41.3632 20.4652L41.3793 20.732V29.334C41.3794 30.4217 41.1094 31.4924 40.5935 32.45C40.0776 33.4075 39.332 34.222 38.4237 34.8203C37.5153 35.4186 36.4726 35.7819 35.3891 35.8777C34.3057 35.9735 33.2154 35.7988 32.2161 35.3692C32.5565 34.6838 32.8233 33.9593 33.005 33.2003C33.6298 33.4918 34.3158 33.6277 35.0045 33.5962C35.6933 33.5648 36.3641 33.367 36.9597 33.0198C37.5553 32.6726 38.058 32.1863 38.4247 31.6025C38.7914 31.0187 39.0113 30.3548 39.0655 29.6675L39.0793 29.334V20.732H33.2925L33.2787 20.3893C33.2285 19.6997 33.0224 19.0305 32.6761 18.432V18.432ZM22.9747 6.87451C24.3335 6.87451 25.6366 7.41428 26.5974 8.37508C27.5582 9.33587 28.098 10.639 28.098 11.9978C28.098 13.3565 27.5582 14.6597 26.5974 15.6204C25.6366 16.5812 24.3335 17.121 22.9747 17.121C21.6159 17.121 20.3128 16.5812 19.352 15.6204C18.3912 14.6597 17.8515 13.3565 17.8515 11.9978C17.8515 10.639 18.3912 9.33587 19.352 8.37508C20.3128 7.41428 21.6159 6.87451 22.9747 6.87451V6.87451ZM34.4448 8.31891C35.612 8.31891 36.7315 8.78259 37.5568 9.60795C38.3822 10.4333 38.8459 11.5527 38.8459 12.72C38.8459 13.8872 38.3822 15.0066 37.5568 15.832C36.7315 16.6573 35.612 17.121 34.4448 17.121C33.2776 17.121 32.1581 16.6573 31.3328 15.832C30.5074 15.0066 30.0438 13.8872 30.0438 12.72C30.0438 11.5527 30.5074 10.4333 31.3328 9.60795C32.1581 8.78259 33.2776 8.31891 34.4448 8.31891V8.31891ZM11.5391 8.31891C12.7063 8.31891 13.8258 8.78259 14.6511 9.60795C15.4765 10.4333 15.9401 11.5527 15.9401 12.72C15.9401 13.8872 15.4765 15.0066 14.6511 15.832C13.8258 16.6573 12.7063 17.121 11.5391 17.121C10.3719 17.121 9.25244 16.6573 8.42709 15.832C7.60173 15.0066 7.13805 13.8872 7.13805 12.72C7.13805 11.5527 7.60173 10.4333 8.42709 9.60795C9.25244 8.78259 10.3719 8.31891 11.5391 8.31891V8.31891ZM22.9747 9.17451C22.2259 9.17451 21.5078 9.47196 20.9784 10.0014C20.4489 10.5309 20.1515 11.249 20.1515 11.9978C20.1515 12.7465 20.4489 13.4646 20.9784 13.9941C21.5078 14.5236 22.2259 14.821 22.9747 14.821C23.7235 14.821 24.4416 14.5236 24.971 13.9941C25.5005 13.4646 25.798 12.7465 25.798 11.9978C25.798 11.249 25.5005 10.5309 24.971 10.0014C24.4416 9.47196 23.7235 9.17451 22.9747 9.17451ZM34.4448 10.6189C33.8876 10.6189 33.3532 10.8403 32.9591 11.2343C32.5651 11.6283 32.3438 12.1627 32.3438 12.72C32.3438 13.2772 32.5651 13.8116 32.9591 14.2056C33.3532 14.5997 33.8876 14.821 34.4448 14.821C35.002 14.821 35.5364 14.5997 35.9305 14.2056C36.3245 13.8116 36.5459 13.2772 36.5459 12.72C36.5459 12.1627 36.3245 11.6283 35.9305 11.2343C35.5364 10.8403 35.002 10.6189 34.4448 10.6189V10.6189ZM11.5391 10.6189C10.9819 10.6189 10.4475 10.8403 10.0534 11.2343C9.65941 11.6283 9.43805 12.1627 9.43805 12.72C9.43805 13.2772 9.65941 13.8116 10.0534 14.2056C10.4475 14.5997 10.9819 14.821 11.5391 14.821C12.0963 14.821 12.6307 14.5997 13.0248 14.2056C13.4188 13.8116 13.6402 13.2772 13.6402 12.72C13.6402 12.1627 13.4188 11.6283 13.0248 11.2343C12.6307 10.8403 12.0963 10.6189 11.5391 10.6189V10.6189Z" fill="#82C122"/>
</svg>
