<svg width="42" height="42" viewBox="0 0 42 42" fill="none" xmlns="http://www.w3.org/2000/svg">
<path fill-rule="evenodd" clip-rule="evenodd" d="M20.2589 4.27291L21.4961 5.51016C21.7399 5.75392 21.9333 6.04332 22.0653 6.36182C22.1972 6.68033 22.2651 7.02171 22.2651 7.36647C22.2651 7.71123 22.1972 8.05261 22.0653 8.37112C21.9333 8.68963 21.7399 8.97902 21.4961 9.22278L19.2771 11.4409V14.0659C19.2772 14.7619 19.0009 15.4295 18.5089 15.9218L13.4522 20.9775C12.6318 21.7977 11.5192 22.2585 10.3591 22.2585C9.19902 22.2585 8.08642 21.7977 7.26599 20.9775L4.78974 18.503C3.96929 17.6826 3.50836 16.5698 3.50836 15.4095C3.50836 14.2492 3.96929 13.1364 4.78974 12.3159L9.84637 7.26016C10.3385 6.76784 11.0061 6.49118 11.7022 6.49103H14.3272L16.5462 4.27291C16.79 4.02911 17.0794 3.83571 17.3979 3.70376C17.7164 3.57182 18.0578 3.50391 18.4026 3.50391C18.7473 3.50391 19.0887 3.57182 19.4072 3.70376C19.7257 3.83571 20.0151 4.02911 20.2589 4.27291V4.27291ZM19.0207 5.51016C18.8567 5.34612 18.6341 5.25397 18.4021 5.25397C18.1701 5.25397 17.9476 5.34612 17.7835 5.51016L15.9276 7.36603L18.4021 9.84141L20.2589 7.98466C20.4229 7.82057 20.5151 7.59805 20.5151 7.36603C20.5151 7.13401 20.4229 6.91149 20.2589 6.74741L19.0207 5.51016V5.51016ZM14.3272 8.24103H11.7022C11.4702 8.24108 11.2477 8.3333 11.0836 8.49741L6.02874 13.5532C5.78494 13.7969 5.59154 14.0863 5.4596 14.4048C5.32765 14.7233 5.25974 15.0647 5.25974 15.4095C5.25974 15.7542 5.32765 16.0956 5.4596 16.4141C5.59154 16.7326 5.78494 17.022 6.02874 17.2658L8.50412 19.7403C8.99638 20.2324 9.66393 20.5088 10.36 20.5088C11.056 20.5088 11.7236 20.2324 12.2159 19.7403L17.2716 14.6845C17.4357 14.5205 17.5279 14.298 17.528 14.0659V11.4409L14.3281 8.24103H14.3272Z" fill="white"/>
<path d="M27.5651 9.30078L27.4619 9.40578L27.9659 9.71116L27.5642 9.30166L27.5651 9.30078V9.30078Z" fill="white"/>
<path d="M27.5651 9.30145L27.9676 9.7127L28.1391 9.81683L28.1129 9.86058L24.3941 7.54883L23.4876 9.04508L27.2326 11.3131C27.3327 11.3737 27.4439 11.4137 27.5597 11.4305C27.6755 11.4474 27.7936 11.4409 27.9068 11.4114C28.02 11.3818 28.1262 11.3299 28.219 11.2586C28.3118 11.1873 28.3894 11.0981 28.4471 10.9963C28.5399 10.8327 28.6554 10.684 28.7892 10.5518L28.7901 10.551C29.173 10.1751 29.6857 9.96074 30.2221 9.95227C30.7586 9.9438 31.2778 10.1419 31.6724 10.5055C32.0644 10.866 32.3017 11.3644 32.3343 11.896C32.3669 12.4277 32.1924 12.9513 31.8474 13.3571C31.7209 13.506 31.6478 13.6929 31.6399 13.8881C31.632 14.0833 31.6896 14.2755 31.8036 14.4342C32.2268 15.0224 32.4254 15.7428 32.3632 16.4648C32.3011 17.1868 31.9825 17.8627 31.465 18.37C30.9444 18.8804 30.2596 19.1895 29.5324 19.2422C28.8052 19.2949 28.083 19.0878 27.4942 18.6578C27.3376 18.5435 27.1474 18.4845 26.9535 18.49C26.7596 18.4956 26.5731 18.5654 26.4232 18.6885C26.199 18.8726 25.9389 19.008 25.6594 19.086C25.3799 19.1641 25.0873 19.183 24.8001 19.1417C24.5135 19.1006 24.2386 19.0006 23.9927 18.8479C23.7467 18.6951 23.5351 18.4931 23.3712 18.2545C23.2088 18.0166 23.098 17.7473 23.0461 17.4639C22.9941 17.1806 23.0021 16.8895 23.0696 16.6094C23.137 16.3294 23.2624 16.0666 23.4376 15.838C23.6129 15.6093 23.8341 15.42 24.087 15.2821C24.19 15.2255 24.2805 15.1487 24.3532 15.0563C24.4259 14.9639 24.4792 14.8579 24.51 14.7444C24.5408 14.631 24.5484 14.5125 24.5324 14.3961C24.5164 14.2796 24.4771 14.1676 24.4169 14.0667L22.1777 10.3147L20.6754 11.2116L22.505 14.2776C21.9422 14.7921 21.5461 15.463 21.3675 16.2043C21.1797 16.9841 21.243 17.8032 21.5483 18.5448C21.8536 19.2865 22.3853 19.9127 23.0676 20.3343C23.6551 20.6993 24.3301 20.899 25.0215 20.9124C25.713 20.9258 26.3952 20.7524 26.9964 20.4105C27.9052 20.9063 28.9493 21.097 29.9747 20.9544C31.0001 20.8118 31.9526 20.3435 32.6917 19.6186C33.4294 18.8954 33.9129 17.9526 34.0698 16.9316C34.2268 15.9105 34.0487 14.8661 33.5624 13.9547C34.0042 13.2039 34.1754 12.3242 34.0472 11.4625C33.919 10.6007 33.4993 9.80894 32.858 9.2192C32.1335 8.55154 31.1802 8.18776 30.1951 8.20307C29.21 8.21837 28.2685 8.6116 27.5651 9.30145V9.30145Z" fill="white"/>
<path fill-rule="evenodd" clip-rule="evenodd" d="M5.84937 31.5C5.9465 31.0774 6.11363 30.681 6.33675 30.324L5.29375 29.2819C5.21245 29.2006 5.14797 29.1041 5.10397 28.9978C5.05997 28.8916 5.03733 28.7778 5.03733 28.6628C5.03733 28.5478 5.05997 28.434 5.10397 28.3278C5.14797 28.2216 5.21245 28.125 5.29375 28.0437C5.37505 27.9625 5.47156 27.898 5.57778 27.854C5.684 27.81 5.79784 27.7873 5.91281 27.7873C6.02778 27.7873 6.14163 27.81 6.24785 27.854C6.35407 27.898 6.45058 27.9625 6.53188 28.0437L7.574 29.0868C7.93627 28.8602 8.33369 28.6955 8.75 28.5994V27.125C8.75 26.8929 8.84219 26.6704 9.00628 26.5063C9.17038 26.3422 9.39294 26.25 9.625 26.25C9.85706 26.25 10.0796 26.3422 10.2437 26.5063C10.4078 26.6704 10.5 26.8929 10.5 27.125V28.5994C10.9226 28.6965 11.319 28.8636 11.676 29.0868L12.719 28.0437C12.8832 27.8797 13.1058 27.7876 13.3379 27.7876C13.57 27.7877 13.7926 27.88 13.9567 28.0442C14.1208 28.2084 14.2129 28.431 14.2128 28.6631C14.2127 28.8952 14.1204 29.1178 13.9562 29.2819L12.9133 30.324C13.1364 30.681 13.3035 31.0774 13.4006 31.5H14.875C15.1071 31.5 15.3296 31.5922 15.4937 31.7563C15.6578 31.9204 15.75 32.1429 15.75 32.375C15.75 32.6071 15.6578 32.8296 15.4937 32.9937C15.3296 33.1578 15.1071 33.25 14.875 33.25H13.4006C13.3045 33.6663 13.1398 34.0638 12.9133 34.426L13.9562 35.4681C14.1204 35.6322 14.2127 35.8548 14.2128 36.0869C14.2129 36.319 14.1208 36.5416 13.9567 36.7058C13.7926 36.87 13.57 36.9623 13.3379 36.9624C13.1058 36.9624 12.8832 36.8703 12.719 36.7063L11.676 35.6632C11.319 35.8864 10.9226 36.0535 10.5 36.1506V37.625C10.5 37.8571 10.4078 38.0796 10.2437 38.2437C10.0796 38.4078 9.85706 38.5 9.625 38.5C9.39294 38.5 9.17038 38.4078 9.00628 38.2437C8.84219 38.0796 8.75 37.8571 8.75 37.625V36.1506C8.33368 36.0545 7.93625 35.8898 7.574 35.6632L6.53188 36.7063C6.45058 36.7875 6.35407 36.852 6.24785 36.896C6.14163 36.94 6.02778 36.9627 5.91281 36.9627C5.79784 36.9627 5.684 36.94 5.57778 36.896C5.47156 36.852 5.37505 36.7875 5.29375 36.7063C5.21245 36.625 5.14797 36.5284 5.10397 36.4222C5.05997 36.316 5.03733 36.2022 5.03733 36.0872C5.03733 35.9722 5.05997 35.8584 5.10397 35.7522C5.14797 35.6459 5.21245 35.5494 5.29375 35.4681L6.33675 34.426C6.11018 34.0638 5.94547 33.6663 5.84937 33.25H4.375C4.14294 33.25 3.92038 33.1578 3.75628 32.9937C3.59219 32.8296 3.5 32.6071 3.5 32.375C3.5 32.1429 3.59219 31.9204 3.75628 31.7563C3.92038 31.5922 4.14294 31.5 4.375 31.5H5.84937V31.5ZM7.49963 32.375C7.49963 31.7905 7.73588 31.262 8.11738 30.8779L8.12262 30.8726L8.12787 30.8674C8.5252 30.4709 9.06369 30.2484 9.625 30.2487C10.2095 30.2487 10.738 30.485 11.1221 30.8665L11.1274 30.8718L11.1326 30.877C11.3291 31.0738 11.4848 31.3074 11.5909 31.5645C11.6971 31.8215 11.7515 32.0969 11.7513 32.375C11.7519 32.9358 11.53 33.4739 11.1344 33.8712L11.1283 33.8774L11.1221 33.8835C10.7247 34.2791 10.1866 34.501 9.62588 34.5004C9.06512 34.501 8.52702 34.2791 8.12963 33.8835L8.1235 33.8774L8.11738 33.8712C7.7211 33.4741 7.49861 32.936 7.49875 32.375H7.49963Z" fill="white"/>
<path d="M23.1009 24.2055L23.681 23.5502L22.3711 22.3899L21.791 23.0462C20.9853 23.9503 20.4443 25.059 20.2274 26.2504H17.5V26.0754C17.5 25.8433 17.4078 25.6208 17.2437 25.4567C17.0796 25.2926 16.8571 25.2004 16.625 25.2004C16.3929 25.2004 16.1704 25.2926 16.0063 25.4567C15.8422 25.6208 15.75 25.8433 15.75 26.0754V28.1754C15.75 28.4075 15.8422 28.63 16.0063 28.7941C16.1704 28.9582 16.3929 29.0504 16.625 29.0504C16.8571 29.0504 17.0796 28.9582 17.2437 28.7941C17.4078 28.63 17.5 28.4075 17.5 28.1754V28.0004H20.1521C20.2694 29.2666 20.7542 30.471 21.5469 31.4654L19.775 33.239L19.3436 32.8076C19.1786 32.6483 18.9576 32.5601 18.7281 32.5621C18.4987 32.5641 18.2793 32.6561 18.117 32.8183C17.9548 32.9805 17.8628 33.2 17.8608 33.4294C17.8588 33.6588 17.947 33.8799 18.1064 34.0449L20.2064 36.1449C20.2871 36.2285 20.3836 36.2951 20.4904 36.341C20.5971 36.3868 20.712 36.411 20.8281 36.412C20.9443 36.413 21.0596 36.3909 21.1671 36.3469C21.2746 36.3029 21.3723 36.2379 21.4545 36.1557C21.5366 36.0736 21.6016 35.9759 21.6456 35.8684C21.6896 35.7608 21.7117 35.6456 21.7107 35.5294C21.7097 35.4132 21.6856 35.2984 21.6397 35.1917C21.5939 35.0849 21.5272 34.9884 21.4436 34.9077L21.0122 34.4763L22.7999 32.6887C23.8075 33.4466 24.9979 33.9242 26.25 34.0729V36.7504H26.075C25.8429 36.7504 25.6204 36.8426 25.4563 37.0067C25.2922 37.1708 25.2 37.3933 25.2 37.6254C25.2 37.8575 25.2922 38.08 25.4563 38.2441C25.6204 38.4082 25.8429 38.5004 26.075 38.5004H28.175C28.4071 38.5004 28.6296 38.4082 28.7937 38.2441C28.9578 38.08 29.05 37.8575 29.05 37.6254C29.05 37.3933 28.9578 37.1708 28.7937 37.0067C28.6296 36.8426 28.4071 36.7504 28.175 36.7504H28V34.0729C29.2522 33.924 30.4426 33.446 31.4501 32.6878L33.0627 34.3004L32.6314 34.7318C32.472 34.8968 32.3838 35.1178 32.3858 35.3473C32.3878 35.5767 32.4798 35.7961 32.642 35.9584C32.8043 36.1206 33.0237 36.2126 33.2531 36.2146C33.4826 36.2166 33.7036 36.1284 33.8686 35.969L35.9686 33.869C36.128 33.704 36.2162 33.483 36.2142 33.2535C36.2122 33.0241 36.1202 32.8047 35.958 32.6424C35.7957 32.4802 35.5763 32.3882 35.3469 32.3862C35.1174 32.3842 34.8964 32.4724 34.7314 32.6318L34.3 33.0631L32.7031 31.4663C33.496 30.4716 33.9808 29.267 34.0979 28.0004H36.75V28.1754C36.75 28.4075 36.8422 28.63 37.0063 28.7941C37.1704 28.9582 37.3929 29.0504 37.625 29.0504C37.8571 29.0504 38.0796 28.9582 38.2437 28.7941C38.4078 28.63 38.5 28.4075 38.5 28.1754V26.0754C38.5 25.8433 38.4078 25.6208 38.2437 25.4567C38.0796 25.2926 37.8571 25.2004 37.625 25.2004C37.3929 25.2004 37.1704 25.2926 37.0063 25.4567C36.8422 25.6208 36.75 25.8433 36.75 26.0754V26.2504H34.0226C33.8873 25.4981 33.6208 24.7754 33.2351 24.1154L33.1083 23.8993C33.1695 23.873 33.2308 23.8459 33.2911 23.817C34.5301 23.2404 35.6799 22.2307 36.6345 20.5594C36.6948 20.4595 36.7344 20.3486 36.7512 20.2332C36.768 20.1177 36.7615 20.0001 36.7321 19.8872C36.7027 19.7743 36.6511 19.6684 36.5802 19.5758C36.5094 19.4831 36.4207 19.4056 36.3194 19.3477C36.2181 19.2898 36.1063 19.2528 35.9905 19.2388C35.8747 19.2247 35.7572 19.234 35.6451 19.266C35.5329 19.2981 35.4283 19.3522 35.3373 19.4252C35.2464 19.4983 35.171 19.5888 35.1155 19.6914C34.3201 21.0827 33.4285 21.8229 32.5526 22.2307C31.661 22.6454 30.7134 22.7504 29.75 22.7504C29.5179 22.7504 29.2954 22.8426 29.1313 23.0067C28.9672 23.1708 28.875 23.3933 28.875 23.6254C28.875 23.8575 28.9672 24.08 29.1313 24.2441C29.2954 24.4082 29.5179 24.5004 29.75 24.5004C30.2593 24.5004 30.8044 24.475 31.367 24.3884L31.7231 24.9983C32.1396 25.7114 32.375 26.5295 32.375 27.401C32.375 30.1109 30.0633 32.3754 27.125 32.3754C24.1867 32.3754 21.875 30.1109 21.875 27.401C21.875 26.1883 22.3326 25.0735 23.1009 24.2055Z" fill="white"/>
</svg>
